<svg width="56" height="56" viewBox="0 0 56 56" fill="none" xmlns="http://www.w3.org/2000/svg">
<g clip-path="url(#clip0_11293_16549)">
<path d="M52.3318 23.2947H43.7005V6.76753C43.7005 4.24208 41.6459 2.18745 39.1204 2.18745H4.47071C1.94526 2.18745 -0.109375 4.24208 -0.109375 6.76753V32.0362C-0.109375 34.5617 1.94526 36.6163 4.47071 36.6163H7.83785L10.2817 46.39C10.4351 47.0056 10.9221 47.4816 11.5408 47.6217C11.6643 47.6495 11.7882 47.6632 11.9116 47.6632C12.4068 47.6628 12.8845 47.4436 13.2075 47.0518L21.8169 36.6163H26.3244V43.2245C26.3244 45.1869 27.9206 46.7835 29.8834 46.7835H41.2088L46.6092 53.3293C46.9327 53.7211 47.4103 53.9403 47.9055 53.9403C48.0285 53.9403 48.1529 53.9266 48.2759 53.8989C48.8946 53.7591 49.3816 53.2828 49.5354 52.6675L51.0065 46.7835H52.3318C54.2941 46.7835 55.8907 45.1869 55.8907 43.2245V26.8537C55.8907 24.8909 54.2941 23.2947 52.3318 23.2947ZM21.0248 33.256C20.5232 33.256 20.0481 33.4799 19.729 33.867L12.7341 42.3452L10.7799 34.5288C10.5932 33.7806 9.9211 33.256 9.14992 33.256H4.47071C3.79823 33.256 3.25135 32.7087 3.25135 32.0362V6.76753C3.25135 6.09505 3.79823 5.54774 4.47071 5.54774H39.1204C39.7929 5.54774 40.3398 6.09505 40.3398 6.76753V32.0362C40.3398 32.7087 39.7929 33.256 39.1204 33.256H21.0248ZM52.53 43.2245C52.53 43.3339 52.4411 43.4228 52.3318 43.4228H49.6948C48.9236 43.4228 48.2516 43.9478 48.0649 44.6955L47.0826 48.6224L43.2972 44.0337C42.9781 43.6471 42.5025 43.4228 42.0014 43.4228H29.8834C29.774 43.4228 29.6847 43.3339 29.6847 43.2245V36.6163H39.1204C41.6459 36.6163 43.7001 34.5617 43.7001 32.0362V26.655H52.3318C52.4411 26.655 52.53 26.7439 52.53 26.8537V43.2245Z" fill="#099EE2"/>
<path d="M27.1693 28.9387C26.9018 28.9387 26.6335 28.875 26.3874 28.7456L21.7958 26.3316L17.2037 28.7456C16.6376 29.0433 15.9519 28.9938 15.4341 28.6174C14.9167 28.2418 14.6577 27.6044 14.7658 26.9742L15.643 21.8609L11.9276 18.24C11.4701 17.7935 11.3051 17.1257 11.5025 16.5173C11.7003 15.9093 12.2263 15.4659 12.859 15.374L17.9928 14.628L20.2889 9.97574C20.5721 9.40238 21.1562 9.03922 21.7958 9.03922C22.4354 9.03922 23.0194 9.40238 23.3022 9.97574L25.5983 14.628L30.7321 15.374C31.3652 15.4659 31.8912 15.9093 32.0886 16.5173C32.2864 17.1257 32.1215 17.7935 31.6635 18.24L27.9485 21.8609L28.8253 26.9742C28.9334 27.6044 28.6744 28.2418 28.157 28.6174C27.8644 28.8306 27.5179 28.9387 27.1693 28.9387ZM16.7115 18.2101L18.6209 20.0716C19.017 20.4574 19.1977 21.0137 19.1041 21.5588L18.6534 24.1868L21.0139 22.9461C21.5031 22.6885 22.088 22.6885 22.5776 22.9461L24.9377 24.1868L24.487 21.5588C24.3934 21.0137 24.5742 20.4574 24.9702 20.0716L26.8796 18.2101L24.2409 17.8264C23.6936 17.7469 23.2202 17.4034 22.9758 16.9074L21.7958 14.5161L20.6157 16.9074C20.3705 17.4034 19.8975 17.7469 19.3502 17.8264L16.7115 18.2101Z" fill="#099EE2"/>
</g>
<defs>
<clipPath id="clip0_11293_16549">
<rect width="56" height="56" fill="white"/>
</clipPath>
</defs>
</svg>
