<svg width="56" height="56" viewBox="0 0 56 56" fill="none" xmlns="http://www.w3.org/2000/svg">
<g clip-path="url(#clip0_11293_16566)">
<path d="M32.9219 11.5938C23.8755 11.5938 16.5156 18.9536 16.5156 28C16.5156 37.0464 23.8755 44.4062 32.9219 44.4062C41.9683 44.4062 49.3281 37.0464 49.3281 28C49.3281 18.9536 41.9683 11.5938 32.9219 11.5938ZM32.9219 41.125C25.6847 41.125 19.7969 35.2371 19.7969 28C19.7969 20.7629 25.6847 14.875 32.9219 14.875C40.159 14.875 46.0469 20.7629 46.0469 28C46.0469 35.2371 40.159 41.125 32.9219 41.125Z" fill="#099EE2"/>
<path d="M49.2735 11.6932C44.9357 7.34333 39.1512 4.9385 32.9853 4.92188C32.9638 4.92188 32.9429 4.92188 32.9214 4.92188C28.2205 4.92188 23.7192 6.31892 19.8663 8.96875H8.6963C5.95175 8.96875 3.71875 11.2018 3.71875 13.9463C3.71875 16.6908 5.95175 18.9238 8.6963 18.9238H11.6982C11.3106 19.8297 10.9816 20.76 10.7133 21.7098H4.97766C2.233 21.7098 0 23.9428 0 26.6875C0 29.4322 2.233 31.665 4.97755 31.665H10.1349C10.2853 32.607 10.494 33.5371 10.7595 34.451H10.6822C7.93756 34.451 5.70467 36.684 5.70467 39.4287C5.70467 42.1734 7.93767 44.4062 10.6822 44.4062H16.6914C18.7141 46.4096 21.0564 48.0022 23.6632 49.1451C26.5883 50.4278 29.7034 51.0781 32.9219 51.0781C45.6471 51.0781 56 40.7253 56 28C56 21.8341 53.6113 16.0428 49.2735 11.6932ZM32.9219 47.7969C27.4431 47.7969 22.3461 45.6087 18.5699 41.6355L18.0848 41.125H10.6823C9.74695 41.125 8.98603 40.364 8.98603 39.4287C8.98603 38.4933 9.74706 37.7323 10.6823 37.7323H15.507L14.5849 35.472C13.8558 33.6845 13.3945 31.8002 13.2137 29.8713L13.0744 28.3837H4.97755C4.04228 28.3838 3.28125 27.6229 3.28125 26.6875C3.28125 25.7521 4.04228 24.9911 4.97755 24.9911H13.3089L13.5933 23.7047C14.029 21.7351 14.762 19.8509 15.772 18.1046L17.1959 15.6426H8.6963C7.76092 15.6426 7 14.8816 7 13.9463C7 13.011 7.76103 12.25 8.6963 12.25H20.9165L21.3466 11.9395C24.7325 9.49452 28.7337 8.20312 32.9217 8.20312H32.9765C43.8624 8.23255 52.7188 17.1134 52.7188 28C52.7188 38.9161 43.8378 47.7969 32.9219 47.7969Z" fill="#099EE2"/>
<path d="M34.5625 20.3438C34.5625 19.4377 33.828 18.7031 32.9219 18.7031C32.0158 18.7031 31.2812 19.4377 31.2812 20.3438V29.6406H37.5156C38.4217 29.6406 39.1562 28.9061 39.1562 28C39.1562 27.0939 38.4217 26.3594 37.5156 26.3594H34.5625V20.3438Z" fill="#099EE2"/>
</g>
<defs>
<clipPath id="clip0_11293_16566">
<rect width="56" height="56" fill="white"/>
</clipPath>
</defs>
</svg>
