<svg width="56" height="56" viewBox="0 0 56 56" fill="none" xmlns="http://www.w3.org/2000/svg">
<g clip-path="url(#clip0_11293_16419)">
<path d="M28 43.75C26.7886 43.75 25.6044 43.3908 24.5971 42.7178C23.5899 42.0447 22.8048 41.0881 22.3412 39.9689C21.8777 38.8497 21.7564 37.6182 21.9927 36.4301C22.229 35.2419 22.8124 34.1506 23.669 33.294C24.5256 32.4374 25.6169 31.854 26.8051 31.6177C27.9932 31.3814 29.2247 31.5027 30.3439 31.9662C31.4631 32.4298 32.4197 33.2149 33.0928 34.2221C33.7658 35.2294 34.125 36.4136 34.125 37.625C34.1231 39.2489 33.4771 40.8056 32.3289 41.9539C31.1806 43.1021 29.6239 43.7481 28 43.75ZM28 35C27.4808 35 26.9733 35.154 26.5416 35.4424C26.11 35.7308 25.7735 36.1408 25.5748 36.6205C25.3761 37.1001 25.3242 37.6279 25.4254 38.1371C25.5267 38.6463 25.7767 39.114 26.1438 39.4812C26.511 39.8483 26.9787 40.0983 27.4879 40.1996C27.9971 40.3008 28.5249 40.2489 29.0045 40.0502C29.4842 39.8515 29.8942 39.5151 30.1826 39.0834C30.471 38.6517 30.625 38.1442 30.625 37.625C30.6242 36.9291 30.3474 36.2618 29.8553 35.7697C29.3632 35.2776 28.696 35.0008 28 35Z" fill="#099EE2"/>
<path d="M34.1251 56H21.8751C21.4109 56 20.9658 55.8156 20.6376 55.4874C20.3094 55.1593 20.1251 54.7141 20.1251 54.25V49.2529C20.1172 47.1361 20.9394 45.1005 22.4151 43.5829C23.3078 42.6618 24.4135 41.9747 25.6346 41.5822C26.8557 41.1897 28.1547 41.1038 29.4169 41.3322C31.2429 41.7656 32.8711 42.7983 34.0415 44.2654C35.212 45.7324 35.8573 47.5493 35.8744 49.426V54.25C35.8744 54.714 35.6901 55.159 35.362 55.4872C35.034 55.8154 34.5891 55.9998 34.1251 56ZM23.6251 52.5H32.3751V49.4256C32.3492 48.3707 31.9881 47.3515 31.344 46.5157C30.6999 45.6799 29.8064 45.0709 28.793 44.7771C28.0957 44.6435 27.376 44.6874 26.7002 44.9048C26.0243 45.1223 25.414 45.5062 24.9255 46.0213C24.0858 46.8868 23.6189 48.047 23.6251 49.2529V52.5Z" fill="#099EE2"/>
<path d="M13.7505 17.5H4.67258C3.72436 17.4778 2.82358 17.0807 2.16756 16.3957C1.51154 15.7107 1.15375 14.7936 1.17258 13.8453V4.36574C1.15375 3.41743 1.51153 2.50031 2.16755 1.81526C2.82357 1.13021 3.72434 0.733086 4.67258 0.710861H13.7505C14.6988 0.73304 15.5996 1.13015 16.2556 1.81521C16.9116 2.50027 17.2694 3.41741 17.2505 4.36574V13.8453C17.2694 14.7936 16.9116 15.7107 16.2556 16.3958C15.5996 17.0808 14.6988 17.4779 13.7505 17.5ZM4.67258 4.36574V13.8453H13.7523L13.7505 4.36574H4.67258Z" fill="#099EE2"/>
<path d="M47.25 17.5C45.5194 17.5 43.8277 16.9868 42.3888 16.0254C40.9498 15.0639 39.8283 13.6973 39.1661 12.0985C38.5038 10.4996 38.3305 8.7403 38.6681 7.04296C39.0058 5.34563 39.8391 3.78653 41.0628 2.56282C42.2865 1.33911 43.8456 0.505753 45.543 0.168133C47.2403 -0.169488 48.9996 0.00379124 50.5985 0.666058C52.1973 1.32832 53.5639 2.44983 54.5254 3.88876C55.4868 5.32769 56 7.01942 56 8.75C55.9973 11.0698 55.0745 13.2938 53.4342 14.9342C51.7938 16.5745 49.5698 17.4973 47.25 17.5ZM47.25 3.5C46.2117 3.5 45.1966 3.80791 44.3333 4.38479C43.4699 4.96167 42.797 5.7816 42.3996 6.74092C42.0023 7.70023 41.8983 8.75583 42.1009 9.77423C42.3035 10.7926 42.8035 11.7281 43.5377 12.4623C44.2719 13.1965 45.2074 13.6966 46.2258 13.8991C47.2442 14.1017 48.2998 13.9977 49.2591 13.6004C50.2184 13.203 51.0383 12.5301 51.6152 11.6667C52.1921 10.8034 52.5 9.78836 52.5 8.75C52.4985 7.35809 51.9449 6.02362 50.9606 5.03938C49.9764 4.05515 48.6419 3.50153 47.25 3.5Z" fill="#099EE2"/>
<path d="M34.9999 17.5H20.9999C20.6821 17.4931 20.3724 17.3986 20.1049 17.2268C19.8374 17.055 19.6226 16.8128 19.4841 16.5267C19.3299 16.2253 19.2495 15.8917 19.2495 15.5532C19.2495 15.2147 19.3299 14.8811 19.4841 14.5798L26.4841 1.09288C26.6317 0.819509 26.8506 0.59116 27.1174 0.432013C27.3843 0.272865 27.6892 0.188843 27.9999 0.188843C28.3106 0.188843 28.6155 0.272865 28.8824 0.432013C29.1492 0.59116 29.3681 0.819509 29.5158 1.09288L36.5158 14.5798C36.6699 14.8811 36.7503 15.2147 36.7503 15.5532C36.7503 15.8917 36.6699 16.2253 36.5158 16.5267C36.3772 16.8128 36.1624 17.055 35.8949 17.2268C35.6274 17.3986 35.3177 17.4931 34.9999 17.5ZM24.0316 13.6064H31.9682L27.9999 5.9598L24.0316 13.6064Z" fill="#099EE2"/>
<path d="M28 29.75C27.5359 29.75 27.0908 29.5656 26.7626 29.2374C26.4344 28.9093 26.25 28.4641 26.25 28V22.5775C26.25 22.1133 26.4344 21.6682 26.7626 21.34C27.0908 21.0118 27.5359 20.8275 28 20.8275C28.4641 20.8275 28.9092 21.0118 29.2374 21.34C29.5656 21.6682 29.75 22.1133 29.75 22.5775V28C29.75 28.4641 29.5656 28.9093 29.2374 29.2374C28.9092 29.5656 28.4641 29.75 28 29.75Z" fill="#099EE2"/>
<path d="M17.5632 38.3752H14.6101C12.5925 38.3727 10.6583 37.5701 9.23168 36.1434C7.80507 34.7168 7.0025 32.7826 7 30.765V22.5775C7 22.1133 7.18437 21.6682 7.51256 21.34C7.84075 21.0118 8.28587 20.8275 8.75 20.8275C9.21413 20.8275 9.65925 21.0118 9.98744 21.34C10.3156 21.6682 10.5 22.1133 10.5 22.5775V30.765C10.5013 31.8547 10.9347 32.8993 11.7052 33.6698C12.4757 34.4403 13.5204 34.8738 14.6101 34.8751H17.5632C18.0273 34.8751 18.4724 35.0594 18.8006 35.3876C19.1288 35.7158 19.3132 36.1609 19.3132 36.6251C19.3132 37.0892 19.1288 37.5343 18.8006 37.8625C18.4724 38.1907 18.0273 38.3752 17.5632 38.3752Z" fill="#099EE2"/>
<path d="M41.3901 38.3752H38.437C37.9729 38.3752 37.5278 38.1909 37.1996 37.8627C36.8714 37.5345 36.687 37.0894 36.687 36.6252C36.687 36.1611 36.8714 35.716 37.1996 35.3878C37.5278 35.0596 37.9729 34.8752 38.437 34.8752H41.3901C42.4798 34.8739 43.5245 34.4405 44.295 33.6699C45.0655 32.8994 45.4989 31.8547 45.5002 30.765V22.5775C45.5002 22.1133 45.6846 21.6682 46.0127 21.34C46.3409 21.0118 46.7861 20.8275 47.2502 20.8275C47.7143 20.8275 48.1594 21.0118 48.4876 21.34C48.8158 21.6682 49.0002 22.1133 49.0002 22.5775V30.765C48.9977 32.7826 48.1951 34.7168 46.7685 36.1434C45.3419 37.5701 43.4077 38.3727 41.3901 38.3752Z" fill="#099EE2"/>
<path d="M31.488 26.2619C31.2581 26.2622 31.0305 26.2171 30.8181 26.1291C30.6057 26.0411 30.4129 25.9121 30.2505 25.7493L27.9999 23.4985L25.7492 25.7493C25.4188 26.0661 24.9774 26.2408 24.5197 26.236C24.0619 26.2312 23.6243 26.0472 23.3006 25.7235C22.977 25.3999 22.793 24.9623 22.7882 24.5045C22.7834 24.0468 22.9581 23.6054 23.2749 23.275L26.763 19.7869C27.0911 19.4588 27.5362 19.2745 28.0002 19.2745C28.4643 19.2745 28.9093 19.4588 29.2375 19.7869L32.7249 23.275C32.9695 23.5197 33.1361 23.8315 33.2036 24.1709C33.2711 24.5104 33.2365 24.8622 33.1041 25.1819C32.9716 25.5016 32.7474 25.7749 32.4597 25.9672C32.172 26.1595 31.834 26.2618 31.488 26.2619Z" fill="#099EE2"/>
<path d="M12.238 26.2619C12.0081 26.2622 11.7805 26.2171 11.5681 26.1291C11.3557 26.0411 11.1629 25.9121 11.0005 25.7493L8.74987 23.4985L6.49919 25.7493C6.16877 26.0661 5.72738 26.2408 5.26966 26.236C4.81194 26.2312 4.37433 26.0472 4.05065 25.7235C3.72697 25.3999 3.543 24.9622 3.53818 24.5045C3.53336 24.0468 3.70808 23.6054 4.02487 23.275L7.51262 19.7865C7.84079 19.4585 8.28583 19.2742 8.74987 19.2742C9.2139 19.2742 9.65894 19.4585 9.98712 19.7865L13.4749 23.275C13.7195 23.5197 13.8861 23.8315 13.9536 24.1709C14.0211 24.5104 13.9865 24.8622 13.8541 25.1819C13.7216 25.5016 13.4974 25.7749 13.2097 25.9672C12.922 26.1595 12.584 26.2618 12.238 26.2619Z" fill="#099EE2"/>
<path d="M50.738 26.2619C50.5081 26.2622 50.2805 26.2171 50.0681 26.1291C49.8557 26.0411 49.6629 25.9121 49.5005 25.7493L47.2499 23.4985L44.9992 25.7493C44.6688 26.0661 44.2274 26.2408 43.7697 26.236C43.3119 26.2312 42.8743 26.0472 42.5507 25.7235C42.227 25.3999 42.043 24.9623 42.0382 24.5045C42.0334 24.0468 42.2081 23.6054 42.5249 23.275L46.013 19.7869C46.3411 19.4588 46.7862 19.2745 47.2502 19.2745C47.7143 19.2745 48.1593 19.4588 48.4875 19.7869L51.9749 23.275C52.2195 23.5197 52.3861 23.8315 52.4536 24.1709C52.5211 24.5104 52.4865 24.8622 52.3541 25.1819C52.2216 25.5016 51.9974 25.7749 51.7097 25.9672C51.422 26.1595 51.084 26.2618 50.738 26.2619Z" fill="#099EE2"/>
</g>
<defs>
<clipPath id="clip0_11293_16419">
<rect width="56" height="56" fill="white"/>
</clipPath>
</defs>
</svg>
