<svg width="56" height="56" viewBox="0 0 56 56" fill="none" xmlns="http://www.w3.org/2000/svg">
<g clip-path="url(#clip0_11293_16538)">
<path d="M51.7876 15.1941L51.7859 15.1505C51.7616 14.6126 51.7453 14.0435 51.7355 13.4104C51.6898 10.3227 49.2353 7.76859 46.1471 7.59599C39.7086 7.23667 34.7277 5.13719 30.472 0.989072L30.4356 0.954465C29.0475 -0.318297 26.9536 -0.318297 25.565 0.954465L25.5287 0.989072C21.2729 5.13719 16.2921 7.23667 9.85354 7.59641C6.76584 7.76859 4.31089 10.3227 4.26518 13.4108C4.25578 14.0397 4.23912 14.6088 4.21476 15.1505L4.2122 15.2518C4.08702 21.8173 3.9315 29.9883 6.66501 37.4049C8.16806 41.4833 10.4444 45.0286 13.4304 47.9429C16.8313 51.2617 21.2858 53.8965 26.6699 55.7738C26.8451 55.8349 27.0271 55.8845 27.2125 55.9217C27.474 55.9738 27.7372 55.9998 28.0003 55.9998C28.2635 55.9998 28.5271 55.9738 28.7882 55.9217C28.9736 55.8845 29.1569 55.8345 29.3329 55.773C34.7106 53.8922 39.1604 51.2561 42.5583 47.9377C45.543 45.0226 47.8194 41.4765 49.3237 37.3972C52.0675 29.9584 51.9124 21.772 51.7876 15.1941ZM46.2407 36.2603C43.3577 44.0771 37.4724 49.4455 28.2486 52.6712C28.2157 52.6823 28.1806 52.6921 28.1443 52.6994C28.049 52.7182 27.9521 52.7182 27.8555 52.6989C27.8196 52.6917 27.7846 52.6823 27.7521 52.6712C18.5185 49.4515 12.6294 44.0861 9.74844 36.2688C7.22898 29.4325 7.37168 21.9318 7.49771 15.3146L7.49857 15.2779C7.5242 14.7092 7.54129 14.1136 7.55069 13.4591C7.5712 12.088 8.66324 10.9537 10.0368 10.8772C13.6804 10.6739 16.8813 9.96976 19.8224 8.72477C22.7598 7.48149 25.3685 5.72893 27.797 3.36712C27.9204 3.26287 28.0807 3.26244 28.2037 3.36712C30.6326 5.72893 33.2414 7.48149 36.1782 8.72477C39.1194 9.96976 42.3203 10.6739 45.9643 10.8772C47.3379 10.9537 48.4299 12.088 48.45 13.4595C48.4598 14.1175 48.4769 14.713 48.5025 15.2779C48.6282 21.9027 48.7674 29.4094 46.2407 36.2603Z" fill="#099EE2"/>
<path d="M27.9994 14.0448C20.3039 14.0448 14.0435 20.3057 14.0435 28.0008C14.0435 35.6963 20.3039 41.9572 27.9994 41.9572C35.6945 41.9572 41.9554 35.6963 41.9554 28.0008C41.9554 20.3057 35.6945 14.0448 27.9994 14.0448ZM27.9994 38.6708C22.1158 38.6708 17.3294 33.8844 17.3294 28.0008C17.3294 22.1172 22.1158 17.3308 27.9994 17.3308C33.8826 17.3308 38.669 22.1172 38.669 28.0008C38.669 33.8844 33.8826 38.6708 27.9994 38.6708Z" fill="#099EE2"/>
<path d="M32.0107 23.6681L25.5285 30.1502L23.7691 28.3909C23.1274 27.7491 22.087 27.7491 21.4453 28.3909C20.804 29.0326 20.804 30.0729 21.4453 30.7142L24.3668 33.6357C24.6877 33.9566 25.1081 34.1168 25.5285 34.1168C25.9489 34.1168 26.3693 33.9566 26.6902 33.6357L34.3345 25.9914C34.9757 25.3497 34.9757 24.3094 34.3345 23.6681C33.6927 23.0259 32.6524 23.0259 32.0107 23.6681Z" fill="#099EE2"/>
</g>
<defs>
<clipPath id="clip0_11293_16538">
<rect width="56" height="56" fill="white"/>
</clipPath>
</defs>
</svg>
