<svg width="56" height="56" viewBox="0 0 56 56" fill="none" xmlns="http://www.w3.org/2000/svg">
<g clip-path="url(#clip0_11293_16490)">
<path d="M45.2857 16.3702L36.0404 15.0267L31.9057 6.64902C30.3087 3.41294 25.6908 3.41392 24.0943 6.64891L19.9596 15.0266L10.7143 16.3702C7.14284 16.889 5.71725 21.281 8.30047 23.7992L14.9905 30.3204L13.4112 39.5281C12.8012 43.0851 16.5374 45.798 19.7308 44.1197L28.0001 39.772L36.2695 44.1197C39.4585 45.7961 43.199 43.0846 42.5891 39.5281L41.0098 30.3203L47.7 23.7991C50.2836 21.28 48.8556 16.8889 45.2857 16.3702ZM45.0937 21.1259L37.7009 28.332C37.261 28.7608 37.0603 29.3787 37.1641 29.9842L38.9093 40.1594C38.9969 40.6704 38.4652 41.0563 38.0065 40.8154L28.8685 36.0113C28.3248 35.7255 27.675 35.7255 27.1313 36.0113L17.9934 40.8154C17.5345 41.0565 17.003 40.6703 17.0906 40.1594L18.8358 29.9842C18.9396 29.3787 18.7389 28.7608 18.299 28.332L10.9062 21.1259C10.5349 20.764 10.738 20.1392 11.2511 20.0645L21.4676 18.58C22.0755 18.4916 22.6011 18.1099 22.873 17.559L27.4421 8.30113C27.6714 7.8365 28.3285 7.83617 28.5579 8.30124L33.127 17.559C33.3989 18.1099 33.9245 18.4917 34.5324 18.58L44.7489 20.0645C45.2619 20.1392 45.4649 20.7641 45.0937 21.1259Z" fill="#099EE2"/>
<path d="M14.7363 5.15725L12.5038 2.08458C11.8976 1.2507 10.7304 1.06564 9.89652 1.6718C9.06254 2.27773 8.87759 3.44509 9.48363 4.27908L11.7161 7.35164C12.3225 8.18595 13.4897 8.37025 14.3234 7.76442C15.1573 7.15859 15.3423 5.99123 14.7363 5.15725Z" fill="#099EE2"/>
<path d="M7.32787 32.693C7.00948 31.7126 5.95642 31.1756 4.97576 31.4945L1.29026 32.6921C0.309823 33.0107 -0.226662 34.0636 0.0918384 35.0442C0.410885 36.0263 1.4657 36.5609 2.44395 36.2426L6.12945 35.0451C7.10999 34.7265 7.64648 33.6734 7.32787 32.693Z" fill="#099EE2"/>
<path d="M46.1036 1.67191C45.2698 1.06597 44.1024 1.25071 43.4964 2.08469L41.2639 5.15725C40.6579 5.99124 40.8428 7.15871 41.6768 7.76453C42.5111 8.37069 43.6784 8.18541 44.2841 7.35175L46.5165 4.27919C47.1225 3.44521 46.9376 2.27774 46.1036 1.67191Z" fill="#099EE2"/>
<path d="M54.7096 32.6921L51.0241 31.4945C50.0436 31.1754 48.9906 31.7125 48.672 32.693C48.3534 33.6734 48.8898 34.7266 49.8704 35.0451L53.5559 36.2426C54.5342 36.5608 55.589 36.0262 55.908 35.0442C56.2266 34.0637 55.69 33.0107 54.7096 32.6921Z" fill="#099EE2"/>
<path d="M27.9999 47.163C26.969 47.163 26.1333 47.9988 26.1333 49.0296V52.8182C26.1333 53.849 26.969 54.6848 27.9999 54.6848C29.0308 54.6848 29.8665 53.849 29.8665 52.8182V49.0296C29.8666 47.9987 29.0309 47.163 27.9999 47.163Z" fill="#099EE2"/>
</g>
<defs>
<clipPath id="clip0_11293_16490">
<rect width="56" height="56" fill="white"/>
</clipPath>
</defs>
</svg>
