<svg width="32" height="38" viewBox="0 0 32 38" fill="none" xmlns="http://www.w3.org/2000/svg">
<path d="M31.4169 27.4779C31.156 28.1249 30.9084 28.794 30.6187 29.4438C29.668 31.5753 28.3527 33.4713 26.7947 35.1999C26.1288 35.9388 25.3546 36.5494 24.4049 36.9055C23.3985 37.2826 22.3835 37.2404 21.3771 36.9313C20.6815 36.7179 20.0033 36.447 19.3135 36.2135C18.3579 35.89 17.3803 35.6918 16.3644 35.7474C15.4405 35.7981 14.5521 36.0144 13.6896 36.3408C12.8905 36.6423 12.0961 36.9504 11.2538 37.1246C9.97113 37.3898 8.84579 37.05 7.82118 36.2881C6.77163 35.5081 5.95424 34.5079 5.1666 33.479C4.08539 32.0663 3.16343 30.5608 2.4487 28.9308C1.61693 27.0348 1.00197 25.0718 0.710324 23.0216C0.385097 20.7389 0.392771 18.461 1.1171 16.2415C1.97573 13.6152 3.56445 11.5765 6.07704 10.3227C7.42208 9.65081 8.84867 9.32826 10.353 9.41249C11.3325 9.468 12.2583 9.77715 13.1793 10.0968C13.94 10.361 14.7066 10.6089 15.4654 10.8769C16.091 11.098 16.681 10.9592 17.2767 10.7553C18.3349 10.3935 19.3902 10.025 20.458 9.69484C21.6812 9.31678 22.9265 9.20288 24.2082 9.39526C25.5024 9.58955 26.7313 9.94369 27.8653 10.6012C28.8851 11.1927 29.7265 11.9766 30.4201 12.9634C27.5756 14.6814 26.1125 17.1584 26.3495 20.5006C26.5865 23.8342 28.4601 26.0317 31.4179 27.477L31.4169 27.4779Z" fill="white"/>
<path d="M23.6411 0.645375C23.6411 1.14211 23.6785 1.62928 23.6344 2.10784C23.4818 3.78374 22.7498 5.21557 21.6754 6.48087C20.8906 7.40448 19.9859 8.19314 18.8807 8.72147C17.9799 9.15216 17.032 9.35699 16.0112 9.2718C15.9201 8.76645 15.9441 8.25727 16.0151 7.74904C16.2664 5.95159 17.1001 4.4384 18.3339 3.13673C19.1426 2.28299 20.1317 1.68001 21.2139 1.22443C21.9229 0.925808 22.6549 0.718115 23.4233 0.645375C23.4847 0.639632 23.5471 0.645375 23.6411 0.645375Z" fill="white"/>
</svg>
