<svg width="200" height="64" viewBox="0 0 200 64" fill="none" xmlns="http://www.w3.org/2000/svg">
<path d="M189.362 1.12939H10.6385C5.38824 1.12939 1.13208 5.37552 1.13208 10.6134V53.3866C1.13208 58.6245 5.38824 62.8706 10.6385 62.8706H189.362C194.612 62.8706 198.868 58.6245 198.868 53.3866V10.6134C198.868 5.37552 194.612 1.12939 189.362 1.12939Z" fill="#099EE2"/>
<path d="M189.362 63.999H10.6385C4.77287 63.999 0 59.2384 0 53.3857V10.6134C0 4.76066 4.77191 0 10.6385 0H189.362C195.227 0 200 4.76066 200 10.6134V53.3866C200 59.2384 195.228 64 189.362 64V63.999ZM10.6385 2.25878C6.02101 2.25878 2.26411 6.00682 2.26411 10.6134V53.3866C2.26411 57.9932 6.02101 61.7412 10.6385 61.7412H189.362C193.979 61.7412 197.736 57.9932 197.736 53.3866V10.6134C197.736 6.00682 193.979 2.25878 189.362 2.25878H10.6385Z" fill="#0090D2"/>
<path d="M44.4169 39.4779C44.156 40.1249 43.9084 40.794 43.6187 41.4438C42.668 43.5753 41.3527 45.4713 39.7947 47.1999C39.1288 47.9388 38.3546 48.5494 37.4049 48.9055C36.3985 49.2826 35.3835 49.2404 34.3771 48.9313C33.6815 48.7179 33.0033 48.447 32.3135 48.2135C31.3579 47.89 30.3803 47.6918 29.3644 47.7474C28.4405 47.7981 27.5521 48.0144 26.6896 48.3408C25.8905 48.6423 25.0961 48.9504 24.2538 49.1246C22.9711 49.3898 21.8458 49.05 20.8212 48.2881C19.7716 47.5081 18.9542 46.5079 18.1666 45.479C17.0854 44.0663 16.1634 42.5608 15.4487 40.9308C14.6169 39.0348 14.002 37.0718 13.7103 35.0216C13.3851 32.7389 13.3928 30.461 14.1171 28.2415C14.9757 25.6152 16.5645 23.5765 19.077 22.3227C20.4221 21.6508 21.8487 21.3283 23.353 21.4125C24.3325 21.468 25.2583 21.7771 26.1793 22.0968C26.94 22.361 27.7066 22.6089 28.4654 22.8769C29.091 23.098 29.681 22.9592 30.2767 22.7553C31.3349 22.3935 32.3902 22.025 33.458 21.6948C34.6812 21.3168 35.9265 21.2029 37.2082 21.3953C38.5024 21.5896 39.7313 21.9437 40.8653 22.6012C41.8851 23.1927 42.7265 23.9766 43.4201 24.9634C40.5756 26.6814 39.1125 29.1584 39.3495 32.5006C39.5865 35.8342 41.4601 38.0317 44.4179 39.477L44.4169 39.4779Z" fill="white"/>
<path d="M36.6411 12.6454C36.6411 13.1421 36.6785 13.6293 36.6344 14.1078C36.4818 15.7837 35.7498 17.2156 34.6754 18.4809C33.8906 19.4045 32.9859 20.1931 31.8807 20.7215C30.9799 21.1522 30.032 21.357 29.0112 21.2718C28.9201 20.7664 28.9441 20.2573 29.0151 19.749C29.2664 17.9516 30.1001 16.4384 31.3339 15.1367C32.1426 14.283 33.1317 13.68 34.2139 13.2244C34.9229 12.9258 35.6549 12.7181 36.4233 12.6454C36.4847 12.6396 36.5471 12.6454 36.6411 12.6454Z" fill="white"/>
<path d="M59.104 49.2404L67.0687 28.5505H70.0255L78.514 49.2404H75.3874L72.9679 42.9742H64.2961L62.0186 49.2404H59.104ZM65.0886 40.7441H72.1198L69.9554 35.0139C69.2954 33.2729 68.8052 31.843 68.4838 30.7232C68.2199 32.0497 67.8467 33.3667 67.3661 34.6751L65.0886 40.7441Z" fill="white"/>
<path d="M80.3809 54.9849V34.252H82.7006V36.1997C83.2475 35.4379 83.8653 34.8665 84.5541 34.4846C85.2429 34.1037 86.0776 33.9132 87.0581 33.9132C88.3408 33.9132 89.4728 34.2425 90.4533 34.9009C91.4338 35.5594 92.1744 36.4888 92.6742 37.688C93.1741 38.8873 93.4245 40.2024 93.4245 41.6323C93.4245 43.1656 93.1482 44.5467 92.5965 45.7747C92.0449 47.0026 91.2429 47.9435 90.1914 48.5972C89.1399 49.2509 88.0338 49.5782 86.8739 49.5782C86.0248 49.5782 85.2631 49.3992 84.5896 49.0422C83.9152 48.6843 83.3616 48.2335 82.927 47.687V54.984H80.3809V54.9849ZM82.6872 41.8314C82.6872 43.76 83.0786 45.186 83.8615 46.1077C84.6443 47.0294 85.5922 47.4908 86.705 47.4908C87.8179 47.4908 88.8061 47.0132 89.6119 46.058C90.4188 45.1028 90.8217 43.6231 90.8217 41.6189C90.8217 39.6147 90.4283 38.2786 89.6407 37.3282C88.8531 36.3778 87.9129 35.903 86.8182 35.903C85.7236 35.903 84.7738 36.4084 83.9392 37.4201C83.1045 38.4317 82.6872 39.9018 82.6872 41.8304V41.8314Z" fill="white"/>
<path d="M96.4934 54.9849V34.252H98.8132V36.1997C99.36 35.4379 99.9778 34.8665 100.667 34.4846C101.356 34.1037 102.19 33.9132 103.171 33.9132C104.453 33.9132 105.585 34.2425 106.566 34.9009C107.546 35.5594 108.287 36.4888 108.787 37.688C109.287 38.8873 109.537 40.2024 109.537 41.6323C109.537 43.1656 109.261 44.5467 108.709 45.7747C108.157 47.0026 107.355 47.9435 106.304 48.5972C105.252 49.2509 104.146 49.5782 102.986 49.5782C102.137 49.5782 101.376 49.3992 100.702 49.0422C100.028 48.6843 99.4742 48.2335 99.0396 47.687V54.984H96.4934V54.9849ZM98.7997 41.8314C98.7997 43.76 99.1912 45.186 99.974 46.1077C100.757 47.0294 101.705 47.4908 102.818 47.4908C103.93 47.4908 104.919 47.0132 105.724 46.058C106.531 45.1028 106.934 43.6231 106.934 41.6189C106.934 39.6147 106.541 38.2786 105.753 37.3282C104.966 36.3778 104.025 35.903 102.931 35.903C101.836 35.903 100.886 36.4084 100.052 37.4201C99.2171 38.4317 98.7997 39.9018 98.7997 41.8304V41.8314Z" fill="white"/>
<path d="M120.048 42.5933L122.637 42.3674C122.76 43.402 123.045 44.2519 123.493 44.9152C123.941 45.5785 124.637 46.1145 125.58 46.5241C126.523 46.9337 127.584 47.1376 128.763 47.1376C129.81 47.1376 130.735 46.9826 131.536 46.6715C132.337 46.3604 132.933 45.9355 133.325 45.3938C133.716 44.853 133.912 44.2624 133.912 43.6221C133.912 42.9818 133.723 42.4057 133.346 41.9214C132.969 41.4371 132.346 41.0303 131.479 40.7001C130.923 40.4838 129.692 40.1469 127.786 39.6913C125.881 39.2348 124.547 38.8041 123.783 38.4002C122.793 37.8824 122.055 37.2401 121.569 36.4735C121.083 35.7068 120.841 34.8483 120.841 33.8979C120.841 32.8537 121.138 31.8775 121.732 30.9692C122.326 30.0609 123.194 29.3717 124.335 28.9018C125.476 28.4309 126.744 28.1964 128.14 28.1964C129.677 28.1964 131.034 28.4433 132.207 28.9372C133.381 29.4311 134.284 30.1585 134.916 31.1175C135.549 32.0765 135.888 33.1638 135.935 34.3774L133.304 34.5746C133.163 33.2672 132.684 32.2785 131.868 31.6104C131.052 30.9424 129.847 30.6083 128.253 30.6083C126.658 30.6083 125.383 30.9117 124.624 31.5185C123.865 32.1253 123.485 32.8566 123.485 33.7132C123.485 34.4569 123.754 35.0685 124.292 35.548C124.821 36.0275 126.2 36.5194 128.43 37.0229C130.661 37.5263 132.191 37.9666 133.021 38.3427C134.228 38.8979 135.119 39.6013 135.694 40.4532C136.27 41.305 136.557 42.286 136.557 43.3963C136.557 44.5065 136.241 45.5345 135.609 46.5078C134.977 47.4812 134.069 48.2392 132.885 48.78C131.702 49.3208 130.37 49.5916 128.889 49.5916C127.012 49.5916 125.439 49.3189 124.17 48.7733C122.902 48.2278 121.907 47.4066 121.186 46.3107C120.464 45.2148 120.085 43.9753 120.047 42.5913L120.048 42.5933Z" fill="white"/>
<path d="M145.54 46.9683L145.908 49.2127C145.191 49.3629 144.549 49.4385 143.984 49.4385C143.06 49.4385 142.343 49.2931 141.834 49.0012C141.325 48.7092 140.967 48.3264 140.759 47.8507C140.552 47.376 140.448 46.3758 140.448 44.8511V36.2276H138.581V34.2521H140.448V30.5404L142.981 29.0157V34.2521H145.541V36.2276H142.981V44.9918C142.981 45.7163 143.026 46.1825 143.115 46.3892C143.204 46.5959 143.351 46.7606 143.553 46.8831C143.756 47.0056 144.047 47.0668 144.424 47.0668C144.707 47.0668 145.079 47.0343 145.541 46.9683H145.54Z" fill="white"/>
<path d="M147.082 41.7462C147.082 38.9706 147.856 36.9147 149.402 35.5786C150.694 34.4683 152.269 33.9132 154.127 33.9132C156.192 33.9132 157.881 34.588 159.191 35.9385C160.502 37.2889 161.158 39.1543 161.158 41.5347C161.158 43.4632 160.868 44.9803 160.288 46.0867C159.708 47.1921 158.864 48.0507 157.755 48.6623C156.647 49.2739 155.437 49.5792 154.127 49.5792C152.024 49.5792 150.324 48.9063 149.027 47.5606C147.73 46.2149 147.081 44.2768 147.081 41.7462H147.082ZM149.699 41.7462C149.699 43.6652 150.119 45.1028 150.958 46.058C151.798 47.0132 152.854 47.4908 154.127 47.4908C155.4 47.4908 156.442 47.0113 157.281 46.0513C158.121 45.0913 158.54 43.6288 158.54 41.662C158.54 39.808 158.118 38.404 157.274 37.4488C156.429 36.4936 155.381 36.016 154.126 36.016C152.871 36.016 151.797 36.4907 150.957 37.4411C150.118 38.3915 149.698 39.8262 149.698 41.7462H149.699Z" fill="white"/>
<path d="M164.115 49.2404V34.252H166.407V36.5242C166.991 35.4609 167.531 34.7603 168.026 34.4214C168.521 34.0826 169.066 33.9132 169.66 33.9132C170.519 33.9132 171.391 34.186 172.277 34.7315L171.4 37.0889C170.778 36.7223 170.155 36.5386 169.533 36.5386C168.977 36.5386 168.477 36.7051 168.034 37.0391C167.591 37.3732 167.275 37.8364 167.086 38.4289C166.803 39.3324 166.662 40.3201 166.662 41.393V49.2404H164.116H164.115Z" fill="white"/>
<path d="M184.076 44.4137L186.708 44.7381C186.292 46.2714 185.524 47.4621 184.401 48.3091C183.279 49.1562 181.846 49.5792 180.1 49.5792C177.903 49.5792 176.16 48.9044 174.873 47.554C173.585 46.2035 172.942 44.3103 172.942 41.8735C172.942 39.4367 173.592 37.3952 174.894 36.0026C176.196 34.61 177.883 33.9142 179.958 33.9142C182.034 33.9142 183.608 34.5966 184.882 35.9605C186.155 37.3244 186.792 39.2443 186.792 41.7185C186.792 41.8687 186.787 42.0946 186.778 42.3961H175.573C175.667 44.0423 176.134 45.3038 176.974 46.1786C177.813 47.0534 178.86 47.4908 180.115 47.4908C181.048 47.4908 181.846 47.2458 182.506 46.7567C183.166 46.2676 183.689 45.4866 184.076 44.4137ZM175.715 40.3067H184.104C183.991 39.0462 183.67 38.1006 183.142 37.4698C182.331 36.4917 181.279 36.0016 179.987 36.0016C178.818 36.0016 177.834 36.3921 177.037 37.1731C176.24 37.9541 175.8 38.9984 175.714 40.3067H175.715Z" fill="white"/>
<path d="M59.104 25.7093V14.2403H63.0643C63.9584 14.2403 64.6405 14.2949 65.1106 14.4049C65.7697 14.5561 66.3309 14.8299 66.7962 15.2261C67.4026 15.7372 67.8563 16.3909 68.1566 17.1863C68.4569 17.9816 68.6075 18.8909 68.6075 19.9131C68.6075 20.7841 68.5058 21.5564 68.3015 22.2283C68.0971 22.9012 67.8362 23.4582 67.5177 23.8985C67.1992 24.3388 66.85 24.6862 66.471 24.9389C66.0921 25.1915 65.6344 25.3839 65.0991 25.5141C64.5628 25.6443 63.9479 25.7093 63.2523 25.7093H59.104ZM60.6256 24.356H63.0796C63.8375 24.356 64.4323 24.2852 64.8641 24.1445C65.2958 24.0038 65.6392 23.8056 65.8954 23.5501C66.2561 23.1902 66.5372 22.7069 66.7387 22.0991C66.9401 21.4914 67.0409 20.7544 67.0409 19.8892C67.0409 18.6899 66.8432 17.7672 66.4489 17.1231C66.0546 16.479 65.575 16.0473 65.0099 15.8281C64.6022 15.6721 63.9459 15.5936 63.0413 15.5936H60.6256V24.356Z" fill="#74D3FF"/>
<path d="M69.9956 21.5551C69.9956 20.016 70.4244 18.8771 71.2821 18.1363C71.9988 17.5208 72.8718 17.2126 73.9012 17.2126C75.0457 17.2126 75.9821 17.5869 76.7083 18.3353C77.4345 19.0838 77.7981 20.1175 77.7981 21.4373C77.7981 22.5064 77.637 23.3477 77.3156 23.9603C76.9942 24.5728 76.526 25.0495 75.912 25.3883C75.298 25.7271 74.6274 25.8965 73.9002 25.8965C72.7346 25.8965 71.7925 25.5232 71.073 24.7776C70.3544 24.0321 69.9946 22.9572 69.9946 21.5541L69.9956 21.5551ZM71.4462 21.5551C71.4462 22.6194 71.6783 23.4157 72.1436 23.945C72.6089 24.4742 73.1941 24.7394 73.9002 24.7394C74.6063 24.7394 75.1839 24.4733 75.6492 23.9411C76.1145 23.409 76.3466 22.5983 76.3466 21.5082C76.3466 20.4802 76.1125 19.7021 75.6444 19.1728C75.1762 18.6435 74.5948 18.3784 73.8993 18.3784C73.2037 18.3784 72.608 18.6416 72.1427 19.169C71.6774 19.6954 71.4452 20.4907 71.4452 21.5551H71.4462Z" fill="#74D3FF"/>
<path d="M80.9902 25.7089L78.4412 17.4003H79.8994L81.2243 22.1963L81.7184 23.9804C81.7395 23.8914 81.8834 23.3209 82.1501 22.2672L83.475 17.4012H84.9255L86.1727 22.2203L86.5881 23.8081L87.0669 22.204L88.4944 17.4003H89.8663L87.2626 25.7089H85.7957L84.4708 20.7329L84.1494 19.3174L82.4638 25.7089H80.9893H80.9902Z" fill="#74D3FF"/>
<path d="M91.0522 25.7089V17.4002H92.3225V18.5813C92.9345 17.6682 93.8181 17.2126 94.9732 17.2126C95.4749 17.2126 95.9364 17.3026 96.3576 17.4826C96.7787 17.6625 97.0934 17.8989 97.3025 18.1908C97.5117 18.4827 97.6585 18.8302 97.7419 19.2312C97.7937 19.4915 97.8206 19.9481 97.8206 20.5999V25.7089H96.4094V20.6554C96.4094 20.0821 96.3547 19.6523 96.2444 19.3681C96.135 19.0838 95.9402 18.857 95.6601 18.6876C95.38 18.5181 95.0528 18.433 94.6758 18.433C94.0743 18.433 93.5552 18.6234 93.1187 19.0044C92.6822 19.3853 92.4635 20.1079 92.4635 21.1713V25.7089H91.0522Z" fill="#74D3FF"/>
<path d="M99.9521 25.7089V14.2399H101.363V25.7089H99.9521Z" fill="#74D3FF"/>
<path d="M103.026 21.5551C103.026 20.016 103.455 18.8771 104.312 18.1363C105.029 17.5208 105.902 17.2126 106.931 17.2126C108.076 17.2126 109.012 17.5869 109.739 18.3353C110.465 19.0838 110.828 20.1175 110.828 21.4373C110.828 22.5064 110.667 23.3477 110.346 23.9603C110.024 24.5728 109.556 25.0495 108.942 25.3883C108.328 25.7271 107.658 25.8965 106.93 25.8965C105.765 25.8965 104.823 25.5232 104.103 24.7776C103.385 24.0321 103.025 22.9572 103.025 21.5541L103.026 21.5551ZM104.476 21.5551C104.476 22.6194 104.709 23.4157 105.174 23.945C105.639 24.4742 106.224 24.7394 106.93 24.7394C107.637 24.7394 108.214 24.4733 108.679 23.9411C109.145 23.409 109.377 22.5983 109.377 21.5082C109.377 20.4802 109.143 19.7021 108.675 19.1728C108.206 18.6435 107.625 18.3784 106.93 18.3784C106.234 18.3784 105.638 18.6416 105.173 19.169C104.708 19.6954 104.475 20.4907 104.475 21.5551H104.476Z" fill="#74D3FF"/>
<path d="M117.918 24.6838C117.395 25.1269 116.893 25.4399 116.408 25.6227C115.925 25.8055 115.406 25.8965 114.851 25.8965C113.936 25.8965 113.233 25.6735 112.741 25.2274C112.25 24.7814 112.005 24.2119 112.005 23.518C112.005 23.1113 112.098 22.7399 112.283 22.403C112.468 22.0671 112.712 21.7972 113.012 21.5933C113.312 21.3894 113.651 21.2363 114.028 21.132C114.305 21.0592 114.723 20.9884 115.283 20.9204C116.423 20.7845 117.262 20.6228 117.8 20.4352C117.805 20.2419 117.808 20.1193 117.808 20.0677C117.808 19.4944 117.675 19.0895 117.408 18.855C117.047 18.5372 116.511 18.3774 115.8 18.3774C115.136 18.3774 114.646 18.4932 114.329 18.7258C114.013 18.9574 113.779 19.369 113.627 19.9576L112.246 19.77C112.372 19.1804 112.578 18.7047 112.866 18.342C113.154 17.9793 113.569 17.7007 114.113 17.5045C114.657 17.3083 115.287 17.2107 116.003 17.2107C116.72 17.2107 117.292 17.294 117.736 17.4615C118.18 17.628 118.507 17.8386 118.716 18.0912C118.926 18.3439 119.072 18.6636 119.156 19.0493C119.203 19.2895 119.227 19.7221 119.227 20.3481V22.2259C119.227 23.5353 119.257 24.3632 119.317 24.7096C119.377 25.0561 119.496 25.3892 119.674 25.707H118.199C118.053 25.415 117.958 25.0733 117.917 24.6819L117.918 24.6838ZM117.8 21.5387C117.288 21.7474 116.519 21.9245 115.495 22.0709C114.914 22.1542 114.504 22.248 114.264 22.3523C114.023 22.4566 113.838 22.6088 113.708 22.8098C113.577 23.0108 113.512 23.2338 113.512 23.4788C113.512 23.854 113.654 24.167 113.939 24.4177C114.224 24.6685 114.641 24.7929 115.19 24.7929C115.739 24.7929 116.217 24.6742 116.64 24.4369C117.063 24.1995 117.375 23.875 117.574 23.4625C117.725 23.1448 117.801 22.6748 117.801 22.0546V21.5387H117.8Z" fill="#74D3FF"/>
<path d="M126.818 25.7089V24.6609C126.291 25.4849 125.514 25.8965 124.489 25.8965C123.825 25.8965 123.215 25.7137 122.658 25.349C122.101 24.9844 121.669 24.4742 121.363 23.8196C121.057 23.1649 120.905 22.4126 120.905 21.5627C120.905 20.7128 121.043 19.9806 121.32 19.3058C121.597 18.6301 122.013 18.1123 122.567 17.7524C123.122 17.3926 123.741 17.2126 124.426 17.2126C124.927 17.2126 125.374 17.3179 125.767 17.5294C126.159 17.741 126.478 18.0156 126.723 18.3545V14.2389H128.127V25.7079H126.817L126.818 25.7089ZM122.356 21.5627C122.356 22.627 122.581 23.4224 123.031 23.9488C123.481 24.4752 124.011 24.7393 124.622 24.7393C125.233 24.7393 125.763 24.4876 126.195 23.9842C126.626 23.4807 126.841 22.7131 126.841 21.6804C126.841 20.5434 126.622 19.7088 126.182 19.1766C125.743 18.6445 125.202 18.3784 124.559 18.3784C123.916 18.3784 123.408 18.6339 122.987 19.145C122.565 19.6561 122.355 20.462 122.355 21.5627H122.356Z" fill="#74D3FF"/>
<path d="M134.284 21.5551C134.284 20.016 134.713 18.8771 135.571 18.1363C136.287 17.5208 137.16 17.2126 138.19 17.2126C139.334 17.2126 140.271 17.5869 140.997 18.3353C141.723 19.0838 142.087 20.1175 142.087 21.4373C142.087 22.5064 141.926 23.3477 141.604 23.9603C141.283 24.5728 140.815 25.0495 140.201 25.3883C139.587 25.7271 138.916 25.8965 138.189 25.8965C137.023 25.8965 136.081 25.5232 135.362 24.7776C134.643 24.0321 134.283 22.9572 134.283 21.5541L134.284 21.5551ZM135.735 21.5551C135.735 22.6194 135.968 23.4157 136.432 23.945C136.897 24.4742 137.483 24.7394 138.189 24.7394C138.895 24.7394 139.472 24.4733 139.938 23.9411C140.403 23.409 140.635 22.5983 140.635 21.5082C140.635 20.4802 140.401 19.7021 139.933 19.1728C139.465 18.6435 138.883 18.3784 138.188 18.3784C137.492 18.3784 136.897 18.6416 136.431 19.169C135.966 19.6954 135.734 20.4907 135.734 21.5551H135.735Z" fill="#74D3FF"/>
<path d="M143.741 25.7089V17.4002H145.012V18.5813C145.624 17.6682 146.507 17.2126 147.662 17.2126C148.164 17.2126 148.626 17.3026 149.047 17.4826C149.468 17.6625 149.783 17.8989 149.992 18.1908C150.201 18.4827 150.348 18.8302 150.431 19.2312C150.484 19.4915 150.51 19.9481 150.51 20.5999V25.7089H149.099V20.6554C149.099 20.0821 149.044 19.6523 148.934 19.3681C148.823 19.0838 148.629 18.857 148.349 18.6876C148.069 18.5181 147.742 18.433 147.365 18.433C146.763 18.433 146.244 18.6234 145.808 19.0044C145.371 19.3853 145.153 20.1079 145.153 21.1713V25.7089H143.741Z" fill="#74D3FF"/>
<path d="M160.217 24.4493L160.421 25.6936C160.024 25.7768 159.668 25.8189 159.354 25.8189C158.842 25.8189 158.445 25.7385 158.163 25.5768C157.881 25.415 157.682 25.2026 157.567 24.9394C157.452 24.6762 157.394 24.122 157.394 23.2769V18.4971H156.359V17.4021H157.394V15.3443L158.798 14.4992V17.4021H160.217V18.4971H158.798V23.3553C158.798 23.7573 158.823 24.0148 158.873 24.1296C158.923 24.2445 159.003 24.3354 159.115 24.4034C159.228 24.4713 159.389 24.5048 159.598 24.5048C159.754 24.5048 159.962 24.4866 160.218 24.4503L160.217 24.4493Z" fill="#74D3FF"/>
<path d="M161.597 25.7089V14.2399H163.009V18.3554C163.668 17.5936 164.499 17.2136 165.502 17.2136C166.119 17.2136 166.655 17.3352 167.11 17.5773C167.565 17.8195 167.89 18.1554 168.087 18.5823C168.282 19.0101 168.381 19.6303 168.381 20.4439V25.7089H166.97V20.4439C166.97 19.7394 166.817 19.2274 166.511 18.9067C166.205 18.5861 165.773 18.4253 165.213 18.4253C164.795 18.4253 164.402 18.5335 164.033 18.7498C163.665 18.9661 163.402 19.2599 163.246 19.6303C163.089 20.0007 163.011 20.5118 163.011 21.1636V25.7089H161.599H161.597Z" fill="#74D3FF"/>
<path d="M176.231 23.0338L177.689 23.2137C177.459 24.0637 177.033 24.7241 176.411 25.193C175.789 25.662 174.994 25.8975 174.027 25.8975C172.809 25.8975 171.844 25.5232 171.13 24.7748C170.416 24.0263 170.059 22.9764 170.059 21.6259C170.059 20.2754 170.42 19.1432 171.141 18.3717C171.863 17.6003 172.798 17.2136 173.948 17.2136C175.099 17.2136 175.972 17.5917 176.678 18.3478C177.384 19.1039 177.736 20.1682 177.736 21.5398C177.736 21.623 177.733 21.7484 177.728 21.9149H171.517C171.57 22.828 171.828 23.5267 172.293 24.012C172.759 24.4972 173.339 24.7394 174.035 24.7394C174.552 24.7394 174.994 24.6035 175.36 24.3326C175.725 24.0617 176.016 23.6282 176.23 23.0338H176.231ZM171.596 20.7568H176.246C176.184 20.0582 176.005 19.5337 175.713 19.1843C175.263 18.6416 174.68 18.3708 173.964 18.3708C173.315 18.3708 172.77 18.5871 172.329 19.0197C171.888 19.4523 171.643 20.0314 171.596 20.7568Z" fill="#74D3FF"/>
</svg>
