<svg width="24" height="24" viewBox="0 0 24 24" fill="none" xmlns="http://www.w3.org/2000/svg">
<path fill-rule="evenodd" clip-rule="evenodd" d="M21.75 6C21.75 5.58578 21.4142 5.25 21 5.25H3C2.58576 5.25 2.25 5.58578 2.25 6C2.25 6.41424 2.58576 6.75 3 6.75H21C21.4142 6.75 21.75 6.41424 21.75 6Z" fill="#0C1324"/>
<path fill-rule="evenodd" clip-rule="evenodd" d="M21.75 18C21.75 17.5858 21.4142 17.25 21 17.25H3C2.58576 17.25 2.25 17.5858 2.25 18C2.25 18.4142 2.58576 18.75 3 18.75H21C21.4142 18.75 21.75 18.4142 21.75 18Z" fill="#0C1324"/>
<path fill-rule="evenodd" clip-rule="evenodd" d="M17.75 12C17.75 11.5858 17.4142 11.25 17 11.25H3.00002C2.58578 11.25 2.25002 11.5858 2.25002 12C2.25002 12.4142 2.58578 12.75 3.00002 12.75H17C17.4142 12.75 17.75 12.4142 17.75 12Z" fill="#0C1324"/>
</svg>
