<svg width="200" height="64" viewBox="0 0 200 64" fill="none" xmlns="http://www.w3.org/2000/svg">
<path d="M189.362 1.12939H10.6385C5.38824 1.12939 1.13208 5.37552 1.13208 10.6134V53.3866C1.13208 58.6245 5.38824 62.8706 10.6385 62.8706H189.362C194.612 62.8706 198.868 58.6245 198.868 53.3866V10.6134C198.868 5.37552 194.612 1.12939 189.362 1.12939Z" fill="#099EE2"/>
<path d="M189.362 64H10.6385C4.77287 64 0 59.2393 0 53.3866V10.6134C0 4.76162 4.77191 0 10.6385 0H189.362C195.227 0 200 4.76066 200 10.6134V53.3866C200 59.2384 195.228 64 189.362 64ZM10.6385 2.25879C6.02101 2.25879 2.26411 6.00682 2.26411 10.6134V53.3866C2.26411 57.9932 6.02101 61.7412 10.6385 61.7412H189.362C193.979 61.7412 197.736 57.9932 197.736 53.3866V10.6134C197.736 6.00682 193.979 2.25879 189.362 2.25879H10.6385Z" fill="#0090D2"/>
<path d="M66.6667 41.9204V39.1716H73.7833V45.6704C73.0916 46.3384 72.09 46.9261 70.7767 47.4343C69.4642 47.9426 68.1345 48.1962 66.7885 48.1962C65.078 48.1962 63.5871 47.8382 62.316 47.1223C61.0448 46.4064 60.0883 45.3823 59.4494 44.0509C58.8095 42.7196 58.49 41.2705 58.49 39.7057C58.49 38.0068 58.8469 36.4974 59.5607 35.1766C60.2744 33.8558 61.3192 32.8432 62.6949 32.1388C63.7435 31.597 65.0482 31.3262 66.6101 31.3262C68.6401 31.3262 70.226 31.7511 71.3676 32.6001C72.5093 33.45 73.2432 34.6234 73.5703 36.1222L70.2912 36.7338C70.061 35.9327 69.6273 35.3001 68.9913 34.8369C68.3552 34.3736 67.5618 34.141 66.6101 34.141C65.1672 34.141 64.0208 34.5976 63.1688 35.5097C62.3169 36.4218 61.8919 37.7761 61.8919 39.5717C61.8919 41.5079 62.3236 42.9598 63.1861 43.9284C64.0486 44.897 65.1787 45.3804 66.5775 45.3804C67.2692 45.3804 67.9628 45.2454 68.6574 44.9746C69.3529 44.7037 69.9497 44.3754 70.4476 43.9897V41.9195H66.6657L66.6667 41.9204Z" fill="white"/>
<path d="M76.082 41.8429C76.082 40.8044 76.3382 39.7985 76.8514 38.8271C77.3647 37.8556 78.0919 37.1129 79.0321 36.6018C79.9732 36.0897 81.0228 35.8342 82.1836 35.8342C83.9757 35.8342 85.4445 36.4151 86.59 37.5761C87.7355 38.7371 88.3083 40.2043 88.3083 41.9779C88.3083 43.7514 87.7298 45.2473 86.5737 46.4236C85.4177 47.5999 83.9613 48.1876 82.2067 48.1876C81.1206 48.1876 80.0855 47.9426 79.1002 47.4535C78.1149 46.9634 77.3657 46.2456 76.8524 45.3C76.3391 44.3544 76.083 43.202 76.083 41.8448L76.082 41.8429ZM79.295 42.0094C79.295 43.1819 79.5741 44.0797 80.1315 44.7027C80.6889 45.3258 81.3768 45.6378 82.1951 45.6378C83.0135 45.6378 83.6994 45.3258 84.253 44.7027C84.8066 44.0797 85.0838 43.1742 85.0838 41.9874C85.0838 40.8006 84.8066 39.9402 84.253 39.3161C83.6994 38.6931 83.0125 38.381 82.1951 38.381C81.3778 38.381 80.6889 38.6931 80.1315 39.3161C79.5741 39.9392 79.295 40.837 79.295 42.0094Z" fill="white"/>
<path d="M90.0359 41.8429C90.0359 40.8044 90.292 39.7985 90.8053 38.8271C91.3186 37.8556 92.0458 37.1129 92.986 36.6018C93.9271 36.0897 94.9767 35.8342 96.1375 35.8342C97.9296 35.8342 99.3984 36.4151 100.544 37.5761C101.689 38.7371 102.262 40.2043 102.262 41.9779C102.262 43.7514 101.684 45.2473 100.528 46.4236C99.3715 47.5999 97.9152 48.1876 96.1605 48.1876C95.0745 48.1876 94.0393 47.9426 93.0541 47.4535C92.0688 46.9634 91.3195 46.2456 90.8063 45.3C90.293 44.3544 90.0368 43.202 90.0368 41.8448L90.0359 41.8429ZM93.2488 42.0094C93.2488 43.1819 93.528 44.0797 94.0854 44.7027C94.6428 45.3258 95.3307 45.6378 96.149 45.6378C96.9673 45.6378 97.6533 45.3258 98.2068 44.7027C98.7604 44.0797 99.0377 43.1742 99.0377 41.9874C99.0377 40.8006 98.7604 39.9402 98.2068 39.3161C97.6533 38.6931 96.9664 38.381 96.149 38.381C95.3316 38.381 94.6428 38.6931 94.0854 39.3161C93.528 39.9392 93.2488 40.837 93.2488 42.0094Z" fill="white"/>
<path d="M104.425 48.6977L108.006 49.1313C108.065 49.5467 108.202 49.8329 108.418 49.9879C108.716 50.2109 109.184 50.322 109.824 50.322C110.642 50.322 111.255 50.1995 111.664 49.9544C111.939 49.7908 112.147 49.5276 112.288 49.1639C112.385 48.9045 112.433 48.4259 112.433 47.7282V46.0035C111.496 47.2793 110.314 47.9177 108.887 47.9177C107.295 47.9177 106.034 47.2458 105.105 45.903C104.376 44.8425 104.012 43.5217 104.012 41.9415C104.012 39.9603 104.49 38.4471 105.445 37.401C106.401 36.3549 107.588 35.8323 109.009 35.8323C110.43 35.8323 111.683 36.4745 112.635 37.758V36.1003H115.569V46.706C115.569 48.1005 115.453 49.1428 115.223 49.8329C114.993 50.523 114.67 51.0647 114.252 51.458C113.836 51.8514 113.28 52.1596 112.585 52.3817C111.889 52.6037 111.011 52.7157 109.947 52.7157C107.939 52.7157 106.515 52.373 105.675 51.6858C104.834 50.9996 104.414 50.1296 104.414 49.0758C104.414 48.9715 104.418 48.8461 104.425 48.6977ZM107.225 41.7644C107.225 43.0183 107.469 43.9361 107.956 44.519C108.443 45.1009 109.044 45.3928 109.758 45.3928C110.523 45.3928 111.171 45.0942 111.698 44.497C112.226 43.8998 112.491 43.0154 112.491 41.8429C112.491 40.6705 112.238 39.7095 111.732 39.1161C111.226 38.5227 110.587 38.226 109.813 38.226C109.04 38.226 108.443 38.517 107.956 39.0998C107.469 39.6818 107.225 40.5709 107.225 41.7654V41.7644Z" fill="white"/>
<path d="M118.67 47.9186V31.6047H121.805V47.9186H118.67Z" fill="white"/>
<path d="M131.877 44.1572L135.001 44.6798C134.599 45.8226 133.966 46.6926 133.099 47.2898C132.233 47.8871 131.149 48.1857 129.848 48.1857C127.788 48.1857 126.264 47.5148 125.275 46.171C124.494 45.0952 124.103 43.738 124.103 42.0975C124.103 40.1393 124.617 38.605 125.643 37.4957C126.67 36.3864 127.967 35.8323 129.536 35.8323C131.299 35.8323 132.69 36.4132 133.708 37.5742C134.727 38.7352 135.215 40.5135 135.17 42.9101H127.317C127.339 43.8375 127.593 44.5592 128.076 45.0741C128.56 45.5891 129.162 45.8475 129.883 45.8475C130.375 45.8475 130.787 45.7135 131.122 45.4464C131.457 45.1794 131.709 44.7487 131.881 44.1553L131.877 44.1572ZM132.055 40.9968C132.033 40.0914 131.799 39.4033 131.352 38.9324C130.906 38.4615 130.363 38.226 129.723 38.226C129.039 38.226 128.474 38.4749 128.028 38.9716C127.582 39.4683 127.362 40.1441 127.37 40.9968H132.055H132.055Z" fill="white"/>
<path d="M144.092 47.9186V31.6047H149.39C151.398 31.6047 152.707 31.686 153.317 31.8497C154.254 32.0947 155.038 32.6269 155.67 33.4462C156.303 34.2664 156.618 35.325 156.618 36.6238C156.618 37.6249 156.436 38.4671 156.071 39.1496C155.707 39.832 155.244 40.368 154.682 40.7575C154.121 41.1471 153.55 41.4045 152.97 41.5309C152.181 41.6869 151.04 41.7644 149.545 41.7644H147.392V47.9186H144.09H144.092ZM147.394 34.364V38.9936H149.201C150.502 38.9936 151.372 38.9084 151.812 38.738C152.25 38.5676 152.595 38.3006 152.844 37.9369C153.094 37.5732 153.218 37.1502 153.218 36.6687C153.218 36.0753 153.044 35.5853 152.694 35.1996C152.345 34.8139 151.902 34.5727 151.367 34.476C150.972 34.4013 150.181 34.365 148.99 34.365H147.395L147.394 34.364Z" fill="white"/>
<path d="M159.308 47.9186V31.6047H162.442V47.9186H159.308Z" fill="white"/>
<path d="M167.996 39.7057L165.152 39.1936C165.471 38.0508 166.022 37.2057 166.803 36.6563C167.584 36.1069 168.744 35.8332 170.284 35.8332C171.681 35.8332 172.722 35.9978 173.407 36.328C174.091 36.6582 174.573 37.0774 174.852 37.5857C175.131 38.0939 175.27 39.0271 175.27 40.3843L175.237 44.0347C175.237 45.0731 175.287 45.8398 175.387 46.3327C175.488 46.8256 175.675 47.3549 175.951 47.9186H172.85C172.768 47.7109 172.668 47.4027 172.549 46.995C172.497 46.8093 172.459 46.6868 172.437 46.6275C171.902 47.1472 171.329 47.5367 170.719 47.7961C170.109 48.0555 169.459 48.1857 168.767 48.1857C167.547 48.1857 166.586 47.8554 165.883 47.195C165.18 46.5346 164.829 45.7 164.829 44.6912C164.829 44.0232 164.989 43.4279 165.308 42.9053C165.628 42.3827 166.076 41.9817 166.652 41.7032C167.229 41.4246 168.06 41.1815 169.146 40.9738C170.611 40.6991 171.626 40.4436 172.191 40.2062V39.8942C172.191 39.2931 172.042 38.8644 171.745 38.6088C171.447 38.3533 170.886 38.225 170.06 38.225C169.503 38.225 169.067 38.3341 168.755 38.5533C168.443 38.7725 168.19 39.1563 167.996 39.7047V39.7057ZM172.191 42.243C171.789 42.377 171.154 42.5358 170.284 42.7215C169.413 42.9072 168.845 43.089 168.577 43.2671C168.168 43.5561 167.964 43.9236 167.964 44.3687C167.964 44.8138 168.128 45.1851 168.455 45.5038C168.782 45.8225 169.199 45.9824 169.704 45.9824C170.269 45.9824 170.808 45.7967 171.322 45.4263C171.701 45.1439 171.95 44.7994 172.069 44.3917C172.151 44.1246 172.192 43.6164 172.192 42.867V42.2439L172.191 42.243Z" fill="white"/>
<path d="M176.875 36.1002H180.211L183.044 44.4912L185.811 36.1002H189.057L184.874 47.4735L184.126 49.5323C183.851 50.2223 183.589 50.7488 183.34 51.1125C183.09 51.4762 182.804 51.771 182.481 51.9968C182.158 52.2227 181.76 52.3998 181.288 52.5252C180.816 52.6515 180.282 52.7147 179.687 52.7147C179.093 52.7147 178.494 52.6515 177.914 52.5252L177.634 50.0769C178.126 50.1735 178.568 50.2214 178.962 50.2214C179.691 50.2214 180.23 50.008 180.58 49.5811C180.929 49.1542 181.196 48.6106 181.383 47.9511L176.876 36.0992L176.875 36.1002Z" fill="white"/>
<path d="M63.1947 21.2339V19.8873L67.1656 19.8796V24.1215C66.5573 24.713 65.928 25.1581 65.2775 25.4567C64.6271 25.7553 63.9593 25.9046 63.2724 25.9046C62.3572 25.9046 61.5408 25.6759 60.8222 25.2193C60.1046 24.7628 59.5367 24.0957 59.1174 23.218C58.6991 22.3403 58.489 21.2866 58.489 20.0557C58.489 18.8249 58.7001 17.7242 59.1212 16.8006C59.5424 15.876 60.094 15.1946 60.7752 14.7562C61.4563 14.3169 62.2632 14.0977 63.1938 14.0977C63.8807 14.0977 64.4812 14.225 64.9964 14.4786C65.5116 14.7332 65.9357 15.0931 66.2686 15.5602C66.6015 16.0273 66.8509 16.6676 67.0178 17.483L65.9021 17.8563C65.7515 17.2131 65.5615 16.7317 65.3322 16.412C65.1029 16.0933 64.8017 15.8425 64.4275 15.6607C64.0534 15.4788 63.6322 15.3879 63.164 15.3879C62.4829 15.3879 61.8967 15.5525 61.4045 15.8827C60.9133 16.212 60.5181 16.725 60.2188 17.4208C59.9194 18.1166 59.7698 18.9656 59.7698 19.9677C59.7698 21.4943 60.0892 22.639 60.7291 23.3989C61.369 24.1608 62.2008 24.5407 63.2254 24.5407C63.7147 24.5407 64.2145 24.424 64.7268 24.1904C65.2391 23.9569 65.6459 23.6793 65.9481 23.3578V21.233H63.1938L63.1947 21.2339Z" fill="#74D3FF"/>
<path d="M68.9998 25.7089V14.2982H75.7796V15.6449H70.2402V19.1316H75.4285V20.4783H70.2402V24.3622H75.9984V25.7089H68.9998Z" fill="#74D3FF"/>
<path d="M80.117 25.7089V15.6449H77.0278V14.2982H84.463V15.6449H81.3575V25.7089H80.117Z" fill="#74D3FF"/>
<path d="M89.3701 25.7089V14.2982H90.6099V25.7089H89.3701Z" fill="#74D3FF"/>
<path d="M95.1832 25.7089V15.6449H92.094V14.2982H99.5291V15.6449H96.4236V25.7089H95.1832Z" fill="#74D3FF"/>
<path d="M103.851 20.1519C103.851 18.2061 104.28 16.7102 105.139 15.665C105.997 14.6199 107.066 14.0963 108.345 14.0963C109.172 14.0963 109.926 14.3299 110.607 14.7969C111.288 15.264 111.828 15.9426 112.225 16.8327C112.624 17.7228 112.822 18.7823 112.822 20.0122C112.822 21.7034 112.437 23.0817 111.667 24.145C110.819 25.3175 109.709 25.9042 108.336 25.9042C106.963 25.9042 105.84 25.3022 104.997 24.0981C104.232 23.008 103.85 21.6929 103.85 20.1519H103.851ZM105.131 20.1711C105.131 21.579 105.442 22.6711 106.063 23.4463C106.685 24.2235 107.44 24.6111 108.329 24.6111C109.219 24.6111 110.003 24.2197 110.619 23.4348C111.235 22.651 111.544 21.4976 111.544 19.9768C111.544 18.9958 111.386 18.1181 111.068 17.3438C110.824 16.7513 110.456 16.2776 109.964 15.9215C109.473 15.5655 108.936 15.3875 108.353 15.3875C107.417 15.3875 106.646 15.777 106.04 16.5561C105.434 17.3352 105.132 18.5392 105.132 20.1701L105.131 20.1711Z" fill="#74D3FF"/>
<path d="M114.36 25.7089V14.2982H115.632L120.563 23.275V14.2982H121.749V25.7089H120.477L115.555 16.7302V25.7089H114.361H114.36Z" fill="#74D3FF"/>
<path d="M32.029 31.9828L22.0516 23.6358L12.054 15.2707V14.4256C12.054 13.0196 13.5669 12.1304 14.8006 12.8119L30.777 21.646L38.2486 25.7779L32.029 31.9828Z" fill="#74D3FF"/>
<path d="M12.0525 49.5735V48.7293L22.0501 40.3642L31.9873 32.0507L38.1982 38.2471L30.7756 42.3521L14.7992 51.1881C13.5654 51.8696 12.0525 50.9795 12.0525 49.5735Z" fill="#74D3FF"/>
<path d="M12.0525 48.7293V15.2707L22.0501 23.6358L32.0285 31.9828L32.0487 31.9991L31.9873 32.0507L22.0501 40.3642L12.0525 48.7293Z" fill="white"/>
<path d="M12.0525 48.7293V15.2707L22.0501 23.6358L32.0285 31.9828L32.0487 31.9991L31.9873 32.0507L22.0501 40.3642L12.0525 48.7293Z" fill="white"/>
<path d="M38.1983 38.2471L31.9873 32.0507L32.0487 31.999L32.0286 31.9828L38.2482 25.7778L46.5793 30.3854C47.8495 31.0879 47.8495 32.9112 46.5793 33.6127L38.1983 38.2471Z" fill="white"/>
<path d="M31.9872 32.0507L31.9739 32.0373L32.0283 31.9828L32.0483 31.9991L31.9872 32.0507Z" fill="white"/>
</svg>
