<svg width="120" height="36" viewBox="0 0 120 36" fill="none" xmlns="http://www.w3.org/2000/svg">
<path fill-rule="evenodd" clip-rule="evenodd" d="M92.8744 22.1971C89.866 22.1971 90.2519 19.369 92.6649 19.369H94.8646V20.3117C94.8646 21.3033 93.8516 22.1971 92.8744 22.1971ZM59.252 9.62802C59.3265 9.47288 59.6402 8.05688 59.0426 8.05688H51.9202V26.5963H59.671V17.6931C59.671 16.0083 60.094 14.2366 62.0801 14.2366C63.8404 14.2366 64.0702 16.312 64.0702 18.1121V26.5963H71.7164V17.3789C71.7164 15.578 72.3871 14.2366 74.1255 14.2366C76.3786 14.2366 76.0108 17.2916 76.0108 19.5785V25.0251C76.0105 25.5144 75.8138 26.5963 76.3251 26.5963H83.4476C83.9519 26.5963 83.7626 25.609 83.7619 25.1299C83.7609 24.5363 83.7619 23.9428 83.7619 23.3492L83.8519 23.4686C84.5263 24.5053 84.5928 24.9513 85.9806 25.8438C88.1013 27.2078 92.5309 27.4542 94.4741 25.5774C94.6385 25.4186 94.7968 25.2712 94.9395 25.1001L95.3882 24.5013C95.3882 25.4931 95.1933 26.5963 95.7025 26.5963H102.615V16.2268C102.615 10.5952 98.6375 7.74266 92.9791 7.74266C90.2417 7.74266 86.5428 8.32596 84.2855 9.83746C84.4821 10.209 84.6423 10.6387 84.8453 11.0582L86.3671 14.25C86.4912 14.5217 86.5639 14.6182 86.6945 14.8651C87.7196 14.6263 88.6134 13.5034 91.6175 13.5034C93.5002 13.5034 94.5047 14.0538 94.8646 15.5983C93.9888 15.1781 89.3415 15.6023 88.0544 15.9107C87.0461 16.1522 86.2867 16.5159 85.4809 17.0031C84.2132 17.7696 84.1626 18.5936 83.7619 19.0548C83.7619 14.8385 83.9918 10.9172 80.3675 8.72777C78.242 7.44389 74.9432 7.43561 72.7277 8.54443C71.1393 9.3394 70.923 9.91057 70.2501 10.3611C69.1459 9.6217 68.4218 7.74266 64.4892 7.74266C61.0534 7.74266 59.9559 9.43997 59.252 9.62802Z" fill="#68C8F3"/>
<path fill-rule="evenodd" clip-rule="evenodd" d="M38.3034 9.7325V8.0567H31.2857C31.0443 8.0567 30.9714 8.12957 30.9714 8.37093V26.2819C30.9714 26.5232 31.0443 26.5961 31.2857 26.5961H38.7223V17.2739C38.7223 13.5996 43.6453 13.0601 43.6453 16.6455V26.5961H51.3962V15.3886C51.3962 7.55691 43.1978 6.36186 39.4112 8.95485C38.8872 9.31361 38.6617 9.63687 38.3034 9.7325Z" fill="#099EE2"/>
<path fill-rule="evenodd" clip-rule="evenodd" d="M17.3547 9.73251V8.05672H10.0227V26.5961H17.3547C17.9475 26.5961 17.7756 25.7059 17.7738 25.1299C17.7677 23.054 17.5437 17.1881 18.1288 15.7436C18.5076 14.8081 19.2432 14.2365 20.497 14.2365C23.0564 14.2365 22.6966 16.9357 22.6966 19.4735V25.025C22.6962 25.5142 22.4995 26.5961 23.0108 26.5961H30.4476V15.4934C30.4476 11.3942 27.6753 7.74249 23.325 7.74249C21.8481 7.74249 20.9342 7.78468 19.627 8.3389C18.2635 8.91701 18.0731 9.35247 17.3547 9.73251Z" fill="#099EE2"/>
<path fill-rule="evenodd" clip-rule="evenodd" d="M103.14 1.77208V26.5961H110.891V1.56264C109.84 1.31794 104.898 1.45785 103.454 1.45785C103.213 1.45785 103.14 1.53084 103.14 1.77208Z" fill="#68C8F3"/>
<path fill-rule="evenodd" clip-rule="evenodd" d="M111.413 1.77211V26.2819C111.413 26.5233 111.486 26.5962 111.727 26.5962H119.164V1.77211C119.164 1.53087 119.091 1.45789 118.849 1.45789H111.727C111.486 1.45789 111.413 1.53087 111.413 1.77211Z" fill="#68C8F3"/>
<path fill-rule="evenodd" clip-rule="evenodd" d="M2.58603 13.189C2.58603 16.8526 2.35803 21.6136 1.43514 25.131C1.3092 25.6108 1.02553 26.1205 1.01489 26.5961H9.49902L8.80945 23.7244C8.2478 21.1974 7.92789 16.4733 7.92789 13.8175C7.92789 12.808 8.04022 12.0959 8.03403 11.2003C8.02809 10.3533 8.06557 9.32639 8.18087 8.51918C8.43498 6.74219 8.55436 5.25555 8.93242 3.61464C9.54528 0.954726 10.3164 1.45786 6.67098 1.45786C4.78562 1.45786 2.90025 1.45786 1.01489 1.45786C1.02652 1.59814 2.01226 4.43806 2.16714 7.00915L2.58405 11.609C2.52974 12.3245 2.58603 12.5361 2.58603 13.189Z" fill="#099EE2"/>
<path fill-rule="evenodd" clip-rule="evenodd" d="M84.7033 32.7759C84.4504 32.7759 84.1275 32.0428 84.7033 32.0428H85.5412C85.5333 32.3961 85.5062 32.7759 84.7033 32.7759ZM83.8653 30.3669C83.8653 30.7803 83.8983 30.7918 83.97 31.1C85.015 30.8566 85.3896 30.7636 85.5412 31.4142C83.7633 31.4142 83.551 31.6316 83.551 32.7759C83.551 33.1512 83.9963 33.4276 84.4233 33.4703C84.9211 33.52 85.1992 33.2711 85.5412 33.0901V33.4044C86.6397 33.4044 86.4839 33.6884 86.4839 31.7284C86.4839 29.4592 84.7345 30.2945 83.8653 30.3669Z" fill="#68C8F3"/>
<path fill-rule="evenodd" clip-rule="evenodd" d="M22.1719 31.9381C22.1719 30.803 22.7049 30.9314 23.4288 31.1C23.9473 33.3255 22.1719 32.8478 22.1719 31.9381ZM21.2292 31.7285C21.2292 34.234 24.4763 33.7473 24.4763 32.1475C24.4763 31.2392 24.3939 30.1574 22.8004 30.1574C21.9061 30.1574 21.2292 30.8343 21.2292 31.7285Z" fill="#68C8F3"/>
<path fill-rule="evenodd" clip-rule="evenodd" d="M36.313 32.2522C36.7393 31.9667 36.4922 32.0428 37.4651 32.0428C37.4651 32.1263 37.4737 32.2661 37.4526 32.3444C37.3868 32.5873 37.1528 32.7759 36.8366 32.7759C36.3989 32.7759 36.4453 32.5485 36.313 32.2522ZM35.7893 30.3668C35.8511 31.1106 35.8816 31.0954 36.512 30.9937C37.0221 30.9114 37.4105 30.7583 37.4651 31.4142C34.6471 31.4142 35.3 33.1752 36.2037 33.4187C36.7899 33.5767 37.0447 33.3717 37.4651 33.0901V33.4043H38.4078C38.4078 31.6713 38.7497 30.1573 37.2556 30.1573C36.5869 30.1573 36.3373 30.3212 35.7893 30.3668Z" fill="#68C8F3"/>
<path fill-rule="evenodd" clip-rule="evenodd" d="M92.0366 30.5764C91.7052 30.4528 91.8865 30.8038 91.8272 30.2622H90.8845V33.4044C92.1986 33.4044 91.8272 33.7671 91.8272 31.4143C93.3606 30.3876 92.9793 31.7902 92.9793 33.4044H93.9221C93.9221 31.6648 94.2419 30.1574 92.8747 30.1574C92.4778 30.1574 92.2071 30.3438 92.0366 30.5764Z" fill="#68C8F3"/>
<path fill-rule="evenodd" clip-rule="evenodd" d="M62.0809 31.9381C62.0809 30.803 62.6138 30.9314 63.3378 31.1C63.8562 33.3255 62.0809 32.8478 62.0809 31.9381ZM61.1382 31.8333C61.1382 34.1086 64.3852 33.8133 64.3852 32.1475C64.3852 31.1302 64.2792 30.1574 62.6047 30.1574C61.8235 30.1574 61.1382 30.8928 61.1382 31.8333Z" fill="#68C8F3"/>
<path fill-rule="evenodd" clip-rule="evenodd" d="M14.8409 30.262H13.8982V33.4043H14.8409C14.8409 31.3798 14.5839 31.0999 15.8883 31.0999C16.0733 31.8942 15.9931 32.4558 15.9931 33.4043H16.9358C16.9358 32.0499 17.3389 29.3045 15.2475 30.3797C14.9669 30.5239 14.8823 30.7367 14.8409 30.262Z" fill="#68C8F3"/>
<path fill-rule="evenodd" clip-rule="evenodd" d="M69.6219 30.5764V30.2622H68.6792V33.4044H69.6219C69.6219 31.3799 69.3649 31.1 70.6692 31.1C70.8543 31.8943 70.774 32.4559 70.774 33.4044H71.7167C71.7167 31.8582 72.0278 30.1574 70.6692 30.1574C70.2203 30.1574 69.9324 30.4121 69.6219 30.5764Z" fill="#68C8F3"/>
<path fill-rule="evenodd" clip-rule="evenodd" d="M7.50762 30.5764V30.2622H6.56494V33.4044H7.50762C7.50762 31.8071 7.26626 31.1 8.24086 31.1C8.76527 31.1 8.55509 31.9928 8.55509 33.4044C9.90663 33.4044 9.47748 33.7233 9.4995 31.6221C9.50359 31.2317 9.59847 30.1574 8.65987 30.1574C8.09278 30.1574 7.84127 30.3531 7.50762 30.5764Z" fill="#68C8F3"/>
<path fill-rule="evenodd" clip-rule="evenodd" d="M104.919 30.9954C105.332 30.9954 105.862 30.8991 105.862 31.8333C105.862 32.8943 105.019 32.6629 104.605 32.5665C104.549 32.3257 104.183 30.9954 104.919 30.9954ZM103.558 31.6238V32.0428C103.558 33.9765 106.805 33.9789 106.805 31.8333C106.805 29.6413 103.558 29.6147 103.558 31.6238Z" fill="#68C8F3"/>
<path fill-rule="evenodd" clip-rule="evenodd" d="M49.0916 31.1C49.0916 31.6423 49.2544 31.8591 49.7161 32.0467C50.2499 32.2637 50.6116 32.0576 50.6627 32.6712C50.359 32.6712 50.1563 32.6904 49.8681 32.6278C49.5242 32.5529 49.5772 32.4933 49.1963 32.4616C49.0666 32.7067 49.0164 32.7343 48.9868 33.0901C51.5328 34.3117 52.3723 32.1002 50.9373 31.5587C50.1361 31.2563 50.053 31.4579 49.9295 30.9953C50.2545 30.7237 50.8761 31.0568 51.3958 31.1C51.4297 30.6931 51.4904 30.8272 51.5006 30.3668C51.2251 30.3438 49.0916 29.6258 49.0916 31.1Z" fill="#68C8F3"/>
<path fill-rule="evenodd" clip-rule="evenodd" d="M111.831 33.4044H112.878L114.135 30.2622H113.193L112.355 32.2523L111.517 30.2622H110.574C110.648 30.5775 110.764 30.7414 110.874 31.0094L111.831 33.4044Z" fill="#68C8F3"/>
<path fill-rule="evenodd" clip-rule="evenodd" d="M29.5045 33.4044H30.5519L31.8088 30.2622H30.8661L30.0282 32.2523C29.8741 31.5906 29.4616 30.9771 29.295 30.2622H28.3523C28.4742 30.7851 28.7135 31.2702 28.9209 31.7885C29.0845 32.1979 29.4718 33.0114 29.5045 33.4044Z" fill="#68C8F3"/>
<path fill-rule="evenodd" clip-rule="evenodd" d="M43.0156 30.1571C42.7375 30.2906 42.9035 30.2528 42.4919 30.2619V30.9952C42.9035 31.0043 42.7375 30.9665 43.0156 31.0998C43.0156 32.8737 42.7181 33.4042 44.2725 33.4042C44.5921 33.4042 44.6951 33.3036 44.901 33.1947C44.8453 32.956 44.8197 32.9539 44.7962 32.6711C44.3025 32.6711 44.3276 32.6523 43.9583 32.5663V30.9952H44.6915V30.2619H43.9583V29.5287C42.6358 29.5287 43.0003 29.4679 43.0156 30.1571Z" fill="#68C8F3"/>
<path fill-rule="evenodd" clip-rule="evenodd" d="M77.5815 30.2621H77.1626V30.9953H77.5815C77.5815 32.8592 77.4647 33.7661 79.4668 33.2997V32.6712C78.4873 32.6712 78.5242 32.7256 78.5242 31.3095C78.5242 30.913 78.7685 30.9953 79.3622 30.9953V30.2621H78.5242V29.5288H77.5815V30.2621Z" fill="#68C8F3"/>
<path fill-rule="evenodd" clip-rule="evenodd" d="M98.3215 33.4043H99.2642V29.1099H98.3215V33.4043Z" fill="#68C8F3"/>
<path fill-rule="evenodd" clip-rule="evenodd" d="M1.01489 33.4042H1.95758V29.424H1.01489V33.4042Z" fill="#68C8F3"/>
<path fill-rule="evenodd" clip-rule="evenodd" d="M55.8997 33.4044H56.8423V30.2622H55.8997V33.4044Z" fill="#68C8F3"/>
<path fill-rule="evenodd" clip-rule="evenodd" d="M118.641 32.0426C119.256 32.0426 119.131 32.0627 119.164 30.997C119.181 30.4234 119.269 30.1219 119.269 29.424H118.222C118.222 30.0593 118.303 30.2899 118.327 30.7855C118.351 31.3049 118.139 32.0426 118.641 32.0426Z" fill="#68C8F3"/>
<path fill-rule="evenodd" clip-rule="evenodd" d="M55.7959 29.4243C55.7959 29.9533 56.9481 29.9533 56.9481 29.4243C56.9481 28.6975 55.7959 28.6975 55.7959 29.4243Z" fill="#68C8F3"/>
<path fill-rule="evenodd" clip-rule="evenodd" d="M118.326 32.8806C118.326 33.7545 118.967 33.4354 119.268 32.9854C119.101 32.7361 119.142 32.8763 119.059 32.5664C118.673 32.5664 118.326 32.4737 118.326 32.8806Z" fill="#68C8F3"/>
</svg>
