<svg width="36" height="40" viewBox="0 0 36 40" fill="none" xmlns="http://www.w3.org/2000/svg">
<path d="M20.029 19.9828L10.0516 11.6358L0.0539551 3.27071V2.42558C0.0539551 1.01959 1.56688 0.130437 2.80063 0.811899L18.777 9.64601L26.2486 13.7779L20.029 19.9828Z" fill="#74D3FF"/>
<path d="M0.0524902 37.5735V36.7293L10.0501 28.3642L19.9873 20.0507L26.1982 26.2471L18.7756 30.3521L2.79917 39.1881C1.56542 39.8696 0.0524902 38.9795 0.0524902 37.5735Z" fill="#74D3FF"/>
<path d="M0.0524902 36.7293V3.27069L10.0501 11.6358L20.0285 19.9828L20.0487 19.9991L19.9873 20.0507L10.0501 28.3642L0.0524902 36.7293Z" fill="white"/>
<path d="M0.0524902 36.7293V3.27069L10.0501 11.6358L20.0285 19.9828L20.0487 19.9991L19.9873 20.0507L10.0501 28.3642L0.0524902 36.7293Z" fill="white"/>
<path d="M26.1983 26.2471L19.9873 20.0507L20.0487 19.999L20.0286 19.9828L26.2482 13.7778L34.5793 18.3854C35.8495 19.0879 35.8495 20.9112 34.5793 21.6127L26.1983 26.2471Z" fill="white"/>
<path d="M19.9872 20.0507L19.9739 20.0373L20.0283 19.9828L20.0483 19.9991L19.9872 20.0507Z" fill="white"/>
</svg>
