<svg width="48" height="48" viewBox="0 0 48 48" fill="none" xmlns="http://www.w3.org/2000/svg">
<g clip-path="url(#clip0_11293_16201)">
<path d="M44.3894 13.0235L44.3879 12.9862C44.3671 12.5251 44.3531 12.0373 44.3447 11.4946C44.3055 8.848 42.2017 6.65879 39.5547 6.51085C34.0359 6.20286 29.7666 4.40331 26.1188 0.847776L26.0877 0.818113C24.8979 -0.272826 23.1031 -0.272826 21.9129 0.818113L21.8818 0.847776C18.234 4.40331 13.9647 6.20286 8.44589 6.51121C5.79929 6.65879 3.69505 8.848 3.65587 11.495C3.64781 12.034 3.63353 12.5218 3.61265 12.9862L3.61046 13.073C3.50316 18.7005 3.36986 25.7043 5.71287 32.0613C7.00119 35.5572 8.95236 38.596 11.5118 41.0939C14.4268 43.9386 18.2449 46.197 22.8599 47.8061C23.0101 47.8585 23.1661 47.901 23.325 47.9328C23.5491 47.9775 23.7747 47.9999 24.0003 47.9999C24.2259 47.9999 24.4518 47.9775 24.6756 47.9328C24.8345 47.901 24.9916 47.8581 25.1425 47.8054C29.752 46.1934 33.5661 43.9338 36.4785 41.0895C39.0369 38.5908 40.988 35.5513 42.2775 32.0547C44.6293 25.6786 44.4963 18.6617 44.3894 13.0235ZM39.6349 31.0802C37.1637 37.7804 32.1192 42.3818 24.2131 45.1467C24.1849 45.1562 24.1548 45.1647 24.1237 45.1709C24.042 45.187 23.9589 45.187 23.8761 45.1705C23.8454 45.1643 23.8154 45.1562 23.7875 45.1467C15.873 42.387 10.8252 37.7881 8.3558 31.0876C6.19626 25.2278 6.31858 18.7987 6.42661 13.1268L6.42734 13.0953C6.44932 12.6079 6.46396 12.0974 6.47202 11.5363C6.4896 10.3612 7.42563 9.38889 8.603 9.32334C11.726 9.14902 14.4697 8.54551 16.9907 7.47837C19.5084 6.4127 21.7444 4.91051 23.826 2.8861C23.9318 2.79675 24.0691 2.79638 24.1746 2.8861C26.2565 4.91051 28.4926 6.4127 31.0099 7.47837C33.5309 8.54551 36.2746 9.14902 39.398 9.32334C40.5753 9.38889 41.5114 10.3612 41.5286 11.5367C41.537 12.1007 41.5516 12.6112 41.5736 13.0953C41.6813 18.7738 41.8007 25.2081 39.6349 31.0802Z" fill="#099EE2"/>
<path d="M23.9994 12.0384C17.4032 12.0384 12.0371 17.4049 12.0371 24.0007C12.0371 30.5968 17.4032 35.9633 23.9994 35.9633C30.5952 35.9633 35.9616 30.5968 35.9616 24.0007C35.9616 17.4049 30.5952 12.0384 23.9994 12.0384ZM23.9994 33.1464C18.9563 33.1464 14.8536 29.0437 14.8536 24.0007C14.8536 18.9576 18.9563 14.8549 23.9994 14.8549C29.0421 14.8549 33.1447 18.9576 33.1447 24.0007C33.1447 29.0437 29.0421 33.1464 23.9994 33.1464Z" fill="#099EE2"/>
<path d="M27.4375 20.2869L21.8814 25.8431L20.3733 24.335C19.8233 23.785 18.9315 23.785 18.3815 24.335C17.8318 24.8851 17.8318 25.7768 18.3815 26.3265L20.8856 28.8306C21.1607 29.1056 21.521 29.243 21.8814 29.243C22.2417 29.243 22.6021 29.1056 22.8771 28.8306L29.4293 22.2784C29.979 21.7283 29.979 20.8366 29.4293 20.2869C28.8793 19.7365 27.9876 19.7365 27.4375 20.2869Z" fill="#099EE2"/>
</g>
<defs>
<clipPath id="clip0_11293_16201">
<rect width="48" height="48" fill="white"/>
</clipPath>
</defs>
</svg>
