<svg width="48" height="48" viewBox="0 0 48 48" fill="none" xmlns="http://www.w3.org/2000/svg">
<g clip-path="url(#clip0_11293_16167)">
<path d="M45.5993 31.5136V27.6925C45.5993 27.03 45.062 26.4928 44.3992 26.4928H38.3995V21.6929H44.3992C45.062 21.6929 45.5993 21.1556 45.5993 20.4928V16.6721C47.4735 16.0093 48.4557 13.9526 47.7932 12.078C47.1304 10.2037 45.0738 9.22152 43.1991 9.884C41.3248 10.5468 40.3427 12.6035 41.0051 14.4781C41.3677 15.5032 42.1741 16.3096 43.1991 16.6721V19.2931H38.3995V15.6932C38.3995 15.0304 37.8623 14.4931 37.1995 14.4931H33.5996V9.6932C33.5996 4.39155 29.3017 0.093689 24.0001 0.093689C18.6981 0.093689 14.4002 4.39155 14.4002 9.6932V14.4931H10.8007C10.1379 14.4931 9.60064 15.0304 9.60064 15.6929V19.2927H4.8007V16.6721C6.67534 16.0093 7.65752 13.9522 6.99467 12.078C6.3322 10.2037 4.27519 9.22115 2.40091 9.884C0.52664 10.5465 -0.455906 12.6035 0.206937 14.4778C0.569487 15.5032 1.37589 16.3096 2.40091 16.6721V20.4928C2.40091 21.1556 2.93815 21.6929 3.60099 21.6929H9.60064V26.4924H3.60099C2.93815 26.4924 2.40091 27.0297 2.40091 27.6925V31.5132C0.526274 32.176 -0.455906 34.2327 0.206937 36.1073C0.869415 37.9816 2.92643 38.9638 4.8007 38.3013C6.67534 37.6385 7.65752 35.5818 6.99504 33.7072C6.63249 32.6822 5.82609 31.8758 4.8007 31.5132V28.8922H9.60064V34.8922C9.60064 35.5547 10.1379 36.092 10.8007 36.092H19.2001V43.2917H16.5792C15.9167 41.4174 13.8597 40.4349 11.9854 41.0977C10.1108 41.7605 9.12859 43.8172 9.79143 45.6918C10.4539 47.5661 12.5109 48.5483 14.3852 47.8858C15.4106 47.5233 16.2166 46.7169 16.5792 45.6918H20.4002C21.0627 45.6918 21.5999 45.1546 21.5999 44.4918V36.0923H26.3999V44.4918C26.3999 45.1546 26.9371 45.6918 27.5996 45.6918H31.4206C32.0831 47.5661 34.1401 48.5483 36.0144 47.8858C37.889 47.223 38.8712 45.1663 38.2084 43.2917C37.5459 41.4174 35.4889 40.4349 33.6146 41.0977C32.5892 41.4603 31.7832 42.2667 31.4206 43.2917H28.7997V36.092H37.1991C37.8619 36.092 38.3992 35.5547 38.3992 34.8922V28.8922H43.1991V31.5132C41.3245 32.176 40.3423 34.2327 41.0048 36.1073C41.6676 37.9816 43.7246 38.9638 45.5989 38.3013C47.4735 37.6385 48.4557 35.5818 47.7929 33.7072C47.4307 32.6822 46.6243 31.8758 45.5993 31.5136ZM44.3992 12.093C45.062 12.093 45.5993 12.6302 45.5993 13.2931C45.5993 13.9559 45.062 14.4931 44.3992 14.4931C43.7367 14.4931 43.1995 13.9559 43.1995 13.2931C43.2002 12.6306 43.7371 12.0941 44.3992 12.093ZM3.60099 12.093C4.26347 12.093 4.8007 12.6302 4.8007 13.2931C4.8007 13.9559 4.26347 14.4931 3.60099 14.4931C2.93815 14.4931 2.40091 13.9559 2.40091 13.2931C2.40128 12.6306 2.93815 12.0934 3.60099 12.093ZM3.60099 36.0923C2.93815 36.0923 2.40091 35.5551 2.40091 34.8922C2.40091 34.2298 2.93815 33.6925 3.60099 33.6925C4.26347 33.6925 4.8007 34.2298 4.8007 34.8922C4.80033 35.5547 4.26347 36.092 3.60099 36.0923ZM13.2005 45.6918C12.5377 45.6918 12.0004 45.1546 12.0004 44.4918C12.0004 43.8293 12.5377 43.292 13.2005 43.292C13.8633 43.292 14.4006 43.8293 14.4006 44.4918C14.4002 45.1546 13.863 45.6915 13.2005 45.6918ZM34.7997 43.292C35.4622 43.292 35.9994 43.8293 35.9994 44.4918C35.9994 45.1546 35.4622 45.6918 34.7997 45.6918C34.1368 45.6918 33.5996 45.1546 33.5996 44.4918C33.6003 43.8296 34.1372 43.2928 34.7997 43.292ZM16.8004 9.6932C16.8004 5.71687 20.0238 2.49348 24.0001 2.49348C27.9764 2.49348 31.1998 5.71687 31.1998 9.6932V14.4931H16.8004V9.6932ZM35.9998 33.6922H12.0004V16.8929H35.9994V33.6922H35.9998ZM44.3992 36.0923C43.7367 36.0923 43.1995 35.5551 43.1995 34.8922C43.1995 34.2298 43.7367 33.6925 44.3992 33.6925C45.062 33.6925 45.5993 34.2298 45.5993 34.8922C45.5982 35.5547 45.0617 36.0916 44.3992 36.0923Z" fill="#099EE2"/>
<path d="M23.9999 21.6929C23.337 21.6929 22.7998 22.2301 22.7998 22.8926V27.6925C22.7998 28.3554 23.337 28.8926 23.9999 28.8926C24.6624 28.8926 25.1996 28.3554 25.1996 27.6925V22.8926C25.2 22.2301 24.6627 21.6929 23.9999 21.6929Z" fill="#099EE2"/>
</g>
<defs>
<clipPath id="clip0_11293_16167">
<rect width="48" height="48" fill="white"/>
</clipPath>
</defs>
</svg>
