<svg width="48" height="48" viewBox="0 0 48 48" fill="none" xmlns="http://www.w3.org/2000/svg">
<path d="M39.75 20.6246C39.1285 20.6246 38.625 20.1211 38.625 19.4996V6C38.625 5.37964 38.1204 4.875 37.5 4.875H13.5C12.8796 4.875 12.375 5.37964 12.375 6V17.9993C12.375 18.6207 11.8715 19.1243 11.25 19.1243C10.6285 19.1243 10.125 18.6207 10.125 17.9993V6C10.125 4.13891 11.6389 2.625 13.5 2.625H37.5C39.3611 2.625 40.875 4.13891 40.875 6V19.4996C40.875 20.1211 40.3715 20.6246 39.75 20.6246Z" fill="#099EE2"/>
<path d="M27.75 35.625H20.25C19.6285 35.625 19.125 35.1215 19.125 34.5C19.125 33.8785 19.6285 33.375 20.25 33.375H27.75C28.3715 33.375 28.875 33.8785 28.875 34.5C28.875 35.1215 28.3715 35.625 27.75 35.625Z" fill="#099EE2"/>
<path d="M18 45.375H6C4.13891 45.375 2.625 43.8611 2.625 42V20.25C2.625 18.3889 4.13891 16.875 6 16.875H18C19.8611 16.875 21.375 18.3889 21.375 20.25V42C21.375 43.8611 19.8611 45.375 18 45.375ZM6 19.125C5.37964 19.125 4.875 19.6296 4.875 20.25V42C4.875 42.6204 5.37964 43.125 6 43.125H18C18.6204 43.125 19.125 42.6204 19.125 42V20.25C19.125 19.6296 18.6204 19.125 18 19.125H6Z" fill="#099EE2"/>
<path d="M15 41.625H9C8.37854 41.625 7.875 41.1215 7.875 40.5C7.875 39.8785 8.37854 39.375 9 39.375H15C15.6215 39.375 16.125 39.8785 16.125 40.5C16.125 41.1215 15.6215 41.625 15 41.625Z" fill="#099EE2"/>
<path d="M13.9847 22.875H10.0157C8.9361 22.875 7.97956 22.2272 7.57856 21.2248L6.45575 18.4178C6.22504 17.8411 6.50556 17.1863 7.08234 16.9556C7.65839 16.7245 8.31428 17.0057 8.54462 17.5821L9.66743 20.3892C9.72492 20.5323 9.86152 20.625 10.0157 20.625H13.9847C14.1389 20.625 14.2755 20.5323 14.333 20.3892L15.4558 17.5821C15.6865 17.005 16.3413 16.7241 16.918 16.9556C17.4948 17.1863 17.7753 17.8411 17.5446 18.4178L16.4218 21.2248C16.0208 22.2272 15.0643 22.875 13.9847 22.875Z" fill="#099EE2"/>
<path d="M12 37.875C10.1389 37.875 8.625 36.3611 8.625 34.5C8.625 32.6389 10.1389 31.125 12 31.125C13.8611 31.125 15.375 32.6389 15.375 34.5C15.375 36.3611 13.8611 37.875 12 37.875ZM12 33.375C11.3796 33.375 10.875 33.8796 10.875 34.5C10.875 35.1204 11.3796 35.625 12 35.625C12.6204 35.625 13.125 35.1204 13.125 34.5C13.125 33.8796 12.6204 33.375 12 33.375Z" fill="#099EE2"/>
<path d="M12 33.375C11.3785 33.375 10.875 32.8715 10.875 32.25V25.5C10.875 24.8785 11.3785 24.375 12 24.375H13.5C14.1215 24.375 14.625 24.8785 14.625 25.5C14.625 26.1215 14.1215 26.625 13.5 26.625H13.125V32.25C13.125 32.8715 12.6215 33.375 12 33.375Z" fill="#099EE2"/>
<path d="M13.5 29.625H12C11.3785 29.625 10.875 29.1215 10.875 28.5C10.875 27.8785 11.3785 27.375 12 27.375H13.5C14.1215 27.375 14.625 27.8785 14.625 28.5C14.625 29.1215 14.1215 29.625 13.5 29.625Z" fill="#099EE2"/>
<path d="M39.75 11.625H11.25C10.6285 11.625 10.125 11.1215 10.125 10.5C10.125 9.87854 10.6285 9.375 11.25 9.375H39.75C40.3715 9.375 40.875 9.87854 40.875 10.5C40.875 11.1215 40.3715 11.625 39.75 11.625Z" fill="#099EE2"/>
<path d="M24.375 8.25C24.9963 8.25 25.5 7.74632 25.5 7.125C25.5 6.50368 24.9963 6 24.375 6C23.7537 6 23.25 6.50368 23.25 7.125C23.25 7.74632 23.7537 8.25 24.375 8.25Z" fill="#099EE2"/>
<path d="M20.25 8.25C20.8713 8.25 21.375 7.74632 21.375 7.125C21.375 6.50368 20.8713 6 20.25 6C19.6287 6 19.125 6.50368 19.125 7.125C19.125 7.74632 19.6287 8.25 20.25 8.25Z" fill="#099EE2"/>
<path d="M16.125 8.25C16.7463 8.25 17.25 7.74632 17.25 7.125C17.25 6.50368 16.7463 6 16.125 6C15.5037 6 15 6.50368 15 7.125C15 7.74632 15.5037 8.25 16.125 8.25Z" fill="#099EE2"/>
<path d="M19.5 15.375H15.75C15.1285 15.375 14.625 14.8715 14.625 14.25C14.625 13.6285 15.1285 13.125 15.75 13.125H19.5C20.1215 13.125 20.625 13.6285 20.625 14.25C20.625 14.8715 20.1215 15.375 19.5 15.375Z" fill="#099EE2"/>
<path d="M35.25 15.375H23.25C22.6285 15.375 22.125 14.8715 22.125 14.25C22.125 13.6285 22.6285 13.125 23.25 13.125H35.25C35.8715 13.125 36.375 13.6285 36.375 14.25C36.375 14.8715 35.8715 15.375 35.25 15.375Z" fill="#099EE2"/>
<path d="M28.4999 24.375H24.7495C24.1281 24.375 23.6245 23.8715 23.6245 23.25C23.6245 22.6285 24.1281 22.125 24.7495 22.125H28.4999C29.1213 22.125 29.6249 22.6285 29.6249 23.25C29.6249 23.8715 29.1213 24.375 28.4999 24.375Z" fill="#099EE2"/>
<path d="M26.2499 28.875H24.7495C24.1281 28.875 23.6245 28.3715 23.6245 27.75C23.6245 27.1285 24.1281 26.625 24.7495 26.625H26.2499C26.8713 26.625 27.3749 27.1285 27.3749 27.75C27.3749 28.3715 26.8713 28.875 26.2499 28.875Z" fill="#099EE2"/>
<path d="M33.75 19.875H32.25C31.6285 19.875 31.125 19.3715 31.125 18.75C31.125 18.1285 31.6285 17.625 32.25 17.625H33.75C34.3715 17.625 34.875 18.1285 34.875 18.75C34.875 19.3715 34.3715 19.875 33.75 19.875Z" fill="#099EE2"/>
<path d="M28.5 19.875H24.75C24.1285 19.875 23.625 19.3715 23.625 18.75C23.625 18.1285 24.1285 17.625 24.75 17.625H28.5C29.1215 17.625 29.625 18.1285 29.625 18.75C29.625 19.3715 29.1215 19.875 28.5 19.875Z" fill="#099EE2"/>
<path d="M42 29.625V28.125C42 24.8167 39.3083 22.125 36 22.125C34.4033 22.125 32.8971 22.7468 31.7509 23.8828C30.6218 25.0221 30 26.5283 30 28.125V29.625C28.1389 29.625 26.625 31.1389 26.625 33V42C26.625 43.8611 28.1389 45.375 30 45.375H42C43.8611 45.375 45.375 43.8611 45.375 42V33C45.375 31.1389 43.8611 29.625 42 29.625ZM37.125 38.2718V40.3762C37.125 40.9977 36.6215 41.5012 36 41.5012C35.3785 41.5012 34.875 40.9977 34.875 40.3762V38.2718C34.1159 37.867 33.5934 37.0769 33.5934 36.1566C33.5934 34.8274 34.6709 33.75 36 33.75C37.3291 33.75 38.4066 34.8274 38.4066 36.1566C38.4066 37.0769 37.8841 37.867 37.125 38.2718ZM39.75 29.625H32.25V28.125C32.25 27.1256 32.6404 26.1819 33.342 25.474C34.0569 24.7654 35.0006 24.375 36 24.375C38.0676 24.375 39.75 26.0574 39.75 28.125V29.625Z" fill="#099EE2"/>
</svg>
