<svg width="148" height="148" viewBox="0 0 148 148" fill="none" xmlns="http://www.w3.org/2000/svg">
<g filter="url(#filter0_d_908_6665)">
<path d="M24 48C24 36.799 24 31.1984 26.1799 26.9202C28.0973 23.1569 31.1569 20.0973 34.9202 18.1799C39.1984 16 44.799 16 56 16H92C103.201 16 108.802 16 113.08 18.1799C116.843 20.0973 119.903 23.1569 121.82 26.9202C124 31.1984 124 36.799 124 48V84C124 95.201 124 100.802 121.82 105.08C119.903 108.843 116.843 111.903 113.08 113.82C108.802 116 103.201 116 92 116H56C44.799 116 39.1984 116 34.9202 113.82C31.1569 111.903 28.0973 108.843 26.1799 105.08C24 100.802 24 95.201 24 84V48Z" fill="white"/>
<path d="M24 48C24 36.799 24 31.1984 26.1799 26.9202C28.0973 23.1569 31.1569 20.0973 34.9202 18.1799C39.1984 16 44.799 16 56 16H92C103.201 16 108.802 16 113.08 18.1799C116.843 20.0973 119.903 23.1569 121.82 26.9202C124 31.1984 124 36.799 124 48V66H24V48Z" fill="url(#paint0_linear_908_6665)"/>
<path d="M24 48C24 36.799 24 31.1984 26.1799 26.9202C28.0973 23.1569 31.1569 20.0973 34.9202 18.1799C39.1984 16 44.799 16 56 16H92C103.201 16 108.802 16 113.08 18.1799C116.843 20.0973 119.903 23.1569 121.82 26.9202C124 31.1984 124 36.799 124 48V66H24V48Z" fill="url(#paint1_linear_908_6665)" fill-opacity="0.2"/>
<path fill-rule="evenodd" clip-rule="evenodd" d="M87.4167 37.2388V35.3744H79.6C79.3312 35.3744 79.25 35.4555 79.25 35.724V55.6504C79.25 55.9189 79.3312 56 79.6 56H87.8833V45.6288C87.8833 41.541 93.3667 40.9408 93.3667 44.9297V56H102V43.5313C102 34.8184 92.8683 33.4888 88.6505 36.3736C88.067 36.7727 87.8158 37.1324 87.4167 37.2388Z" fill="white"/>
<path fill-rule="evenodd" clip-rule="evenodd" d="M63.7917 37.2166V35.35H55.625V56H63.7917C64.452 56 64.2604 55.0084 64.2585 54.3668C64.2516 52.0546 64.0022 45.5209 64.6538 43.912C65.0758 42.87 65.8951 42.2333 67.2916 42.2333C70.1425 42.2333 69.7416 45.2398 69.7416 48.0666V54.25C69.7412 54.795 69.5221 56 70.0916 56H78.375V43.6333C78.375 39.0674 75.2872 35 70.4416 35C68.7966 35 67.7786 35.047 66.3227 35.6643C64.8039 36.3082 64.5918 36.7933 63.7917 37.2166Z" fill="white"/>
<path fill-rule="evenodd" clip-rule="evenodd" d="M47.7824 41.0891C47.7824 45.1636 47.5238 50.4587 46.4768 54.3706C46.3339 54.9041 46.0121 55.471 46 56H55.625L54.8427 52.8062C54.2055 49.9957 53.8426 44.7418 53.8426 41.7881C53.8426 40.6654 53.97 39.8734 53.963 38.8773C53.9563 37.9354 53.9988 36.7932 54.1296 35.8955C54.4179 33.9192 54.5533 32.2658 54.9822 30.4409C55.6775 27.4826 56.5523 28.0422 52.4167 28.0422C50.2778 28.0422 48.1389 28.0422 46 28.0422C46.0132 28.1982 47.1315 31.3566 47.3072 34.2161L47.7802 39.3319C47.7186 40.1277 47.7824 40.3629 47.7824 41.0891Z" fill="white"/>
<path fill-rule="evenodd" clip-rule="evenodd" d="M80.7769 94.5641C77.9284 94.5641 78.2937 91.9112 80.5784 91.9112H82.6612V92.7955C82.6612 93.7256 81.7021 94.5641 80.7769 94.5641ZM48.9421 82.7735C49.0126 82.628 49.3096 81.2997 48.7438 81.2997H42V98.6908H49.3388V90.3391C49.3388 88.7586 49.7393 87.0967 51.6197 87.0967C53.2864 87.0967 53.5041 89.0435 53.5041 90.7321V98.6908H60.7438V90.0443C60.7438 88.355 61.3788 87.0967 63.0247 87.0967C65.1581 87.0967 64.8099 89.9624 64.8099 92.1077V97.217C64.8095 97.6759 64.6233 98.6908 65.1074 98.6908H71.8513C72.3287 98.6908 72.1495 97.7647 72.1488 97.3153C72.1478 96.7584 72.1488 96.2016 72.1488 95.6448L72.234 95.7568C72.8725 96.7293 72.9356 97.1477 74.2496 97.985C76.2575 99.2644 80.4516 99.4956 82.2915 97.735C82.4472 97.5861 82.597 97.4478 82.7322 97.2873L83.157 96.7256C83.157 97.656 82.9724 98.6908 83.4545 98.6908H90V88.9636C90 83.6808 86.2336 81.0049 80.876 81.0049C78.2841 81.0049 74.7818 81.5521 72.6446 82.97C72.8307 83.3185 72.9824 83.7216 73.1746 84.1152L74.6155 87.1092C74.733 87.3641 74.8019 87.4546 74.9255 87.6862C75.8961 87.4622 76.7424 86.4089 79.5868 86.4089C81.3693 86.4089 82.3205 86.9252 82.6612 88.374C81.832 87.9798 77.4317 88.3778 76.2131 88.6671C75.2584 88.8936 74.5394 89.2348 73.7765 89.6918C72.5761 90.4108 72.5282 91.1838 72.1488 91.6164C72.1488 87.6613 72.3665 83.9829 68.9348 81.929C66.9224 80.7247 63.799 80.7169 61.7012 81.757C60.1973 82.5028 59.9925 83.0386 59.3554 83.4612C58.3099 82.7676 57.6243 81.0049 53.9008 81.0049C50.6477 81.0049 49.6085 82.5971 48.9421 82.7735Z" fill="#099EE2"/>
<path fill-rule="evenodd" clip-rule="evenodd" d="M91 75.3375V99H98V75.1378C97.0516 74.9046 92.5884 75.038 91.2838 75.038C91.0658 75.038 91 75.1075 91 75.3375Z" fill="#099EE2"/>
<path fill-rule="evenodd" clip-rule="evenodd" d="M99 75.3V98.7C99 98.9304 99.0658 99 99.2838 99H106V75.3C106 75.0697 105.934 75 105.716 75H99.2838C99.0658 75 99 75.0697 99 75.3Z" fill="#099EE2"/>
</g>
<defs>
<filter id="filter0_d_908_6665" x="0" y="0" width="148" height="148" filterUnits="userSpaceOnUse" color-interpolation-filters="sRGB">
<feFlood flood-opacity="0" result="BackgroundImageFix"/>
<feColorMatrix in="SourceAlpha" type="matrix" values="0 0 0 0 0 0 0 0 0 0 0 0 0 0 0 0 0 0 127 0" result="hardAlpha"/>
<feOffset dy="8"/>
<feGaussianBlur stdDeviation="12"/>
<feComposite in2="hardAlpha" operator="out"/>
<feColorMatrix type="matrix" values="0 0 0 0 0.133073 0 0 0 0 0.141835 0 0 0 0 0.145833 0 0 0 0.12 0"/>
<feBlend mode="normal" in2="BackgroundImageFix" result="effect1_dropShadow_908_6665"/>
<feBlend mode="normal" in="SourceGraphic" in2="effect1_dropShadow_908_6665" result="shape"/>
</filter>
<linearGradient id="paint0_linear_908_6665" x1="120.5" y1="48.5" x2="80" y2="49" gradientUnits="userSpaceOnUse">
<stop stop-color="#0E90CB"/>
<stop offset="0.430756" stop-color="#1895CE"/>
</linearGradient>
<linearGradient id="paint1_linear_908_6665" x1="24" y1="46.5" x2="74" y2="46" gradientUnits="userSpaceOnUse">
<stop offset="0.0583414" stop-color="#0A81B9"/>
<stop offset="0.618619" stop-color="#099EE2"/>
</linearGradient>
</defs>
</svg>
