<svg width="64" height="64" viewBox="0 0 64 64" fill="none" xmlns="http://www.w3.org/2000/svg">
<rect x="0.5" y="0.5" width="63" height="63" rx="11.5" stroke="#E7E7E9"/>
<path d="M45.3602 38.4267L41.1868 28.6667C40.4268 26.88 39.2935 25.8667 38.0002 25.8C36.7202 25.7333 35.4802 26.6267 34.5335 28.3333L32.0002 32.88C31.4668 33.84 30.7068 34.4133 29.8802 34.48C29.0402 34.56 28.2002 34.12 27.5202 33.2533L27.2268 32.88C26.2802 31.6933 25.1068 31.12 23.9068 31.24C22.7069 31.36 21.6802 32.1867 21.0002 33.5333L18.6935 38.1333C17.8669 39.8 17.9469 41.7333 18.9202 43.3067C19.8935 44.88 21.5868 45.8267 23.4402 45.8267H40.4535C42.2402 45.8267 43.9068 44.9333 44.8935 43.44C45.9068 41.9467 46.0668 40.0667 45.3602 38.4267Z" fill="#CED0D3"/>
<path d="M25.2938 27.1733C27.7827 27.1733 29.8004 25.1556 29.8004 22.6666C29.8004 20.1777 27.7827 18.16 25.2938 18.16C22.8048 18.16 20.7871 20.1777 20.7871 22.6666C20.7871 25.1556 22.8048 27.1733 25.2938 27.1733Z" fill="#CED0D3"/>
</svg>
